# Blender 4.3.2
# www.blender.org
mtllib craterborneeyesocketnew.mtl
o obj_0
v 0.000001 -20.000008 -1.993685
v -9.999998 -0.000008 8.006315
v -9.999998 -0.000008 -2.491684
v -0.497999 -19.004007 -2.491684
v 0.498002 -19.004007 -2.491684
v 10.000002 -0.000008 8.006315
v 8.003001 -0.000008 8.006315
v 0.000001 -18.002008 -0.994684
v 0.000001 19.999992 -1.993685
v -8.002998 -0.000008 8.006315
v 10.000002 -0.000008 -2.491684
v 0.498002 19.003994 -2.491684
v -0.497999 19.003994 -2.491684
v 0.000001 -18.002008 -1.996685
v -8.002998 -0.000008 -1.996685
v 0.000001 18.002991 -0.995184
v 0.000001 18.002991 -1.996685
v 8.003001 -0.000008 -1.996685
vn -0.8944 -0.4472 -0.0000
vn -0.0000 -0.4472 -0.8944
vn -0.0000 -0.4472 0.8944
vn 0.8944 -0.4472 -0.0000
vn -0.0000 0.4472 -0.8944
vn 0.8944 0.4472 -0.0000
vn 0.9138 0.4062 -0.0000
vn -0.8944 0.4472 -0.0000
vn -0.9138 -0.4062 -0.0000
vn -0.0000 -0.0000 1.0000
vn -0.0000 -0.0000 -1.0000
vn -0.9138 0.4062 -0.0000
vn -0.0000 0.4472 0.8944
vn 0.9138 -0.4062 -0.0000
vt 0.700502 0.676363
vt 0.700502 0.983883
vt 0.548520 0.676363
vt 0.693292 1.000000
vt 0.289544 0.501831
vt 0.302441 0.508280
vt 0.289544 0.517952
vt 0.000000 0.289544
vt 0.028911 0.289544
vt 0.144772 0.550163
vt 0.144772 0.579088
vt 0.767473 0.523690
vt 0.760263 0.507573
vt 0.912245 0.200053
vt 0.760263 0.200053
vt 0.260633 0.289544
vt 0.289544 0.289544
vt 0.548520 0.016121
vt 0.535623 0.009673
vt 0.548520 -0.000000
vt 0.760263 0.009963
vt 0.767473 -0.000000
vt 0.774770 0.995077
vt 0.760263 0.995077
vt 0.760263 0.808842
vt 0.905079 0.808842
vt 0.700502 0.486272
vt 0.419861 0.517952
vt 0.434360 0.517952
vt 0.434360 0.803104
vt 0.289544 0.803104
vt 0.760263 0.000000
vt 0.760263 0.285225
vt 0.548520 0.191098
vt 0.693292 0.476310
vt 0.548526 0.476310
vt 0.548520 0.323720
vt 0.289544 0.194232
vt 0.434360 0.989339
vt 0.419854 0.989339
vt 0.144772 0.028911
vt 0.144772 0.000000
vt 0.774762 0.523690
vt 0.760263 0.523690
s 0
usemtl color_16768282
f 3/1/1 4/2/1 2/3/1
f 1/4/1 2/3/1 4/2/1
f 4/5/2 5/6/2 1/7/2
f 6/8/3 7/9/3 8/10/3
f 6/8/3 8/10/3 1/11/3
f 1/12/4 5/13/4 6/14/4
f 11/15/4 6/14/4 5/13/4
f 10/16/3 2/17/3 8/10/3
f 2/17/3 1/11/3 8/10/3
f 12/18/5 13/19/5 9/20/5
f 11/15/6 12/21/6 6/14/6
f 9/22/6 6/14/6 12/21/6
f 8/23/7 14/24/7 15/25/7
f 8/23/7 15/25/7 10/26/7
f 13/27/8 3/1/8 2/3/8
f 16/28/9 17/29/9 18/30/9
f 16/28/9 18/30/9 7/31/9
f 17/32/10 15/33/10 18/34/10
f 13/27/8 2/3/8 9/35/8
f 15/33/10 14/36/10 18/34/10
f 12/18/11 11/37/11 3/38/11
f 12/18/11 3/38/11 13/19/11
f 11/37/11 5/6/11 4/5/11
f 11/37/11 4/5/11 3/38/11
f 14/39/12 8/40/12 18/30/12
f 7/31/12 18/30/12 8/40/12
f 2/17/13 10/16/13 16/41/13
f 7/9/13 6/8/13 16/41/13
f 6/8/13 9/42/13 16/41/13
f 2/17/13 16/41/13 9/42/13
f 10/26/14 15/25/14 16/43/14
f 17/44/14 16/43/14 15/25/14
