# Blender 4.3.2
# www.blender.org
mtllib craterhammer.mtl
o obj_0
v 5.892599 -5.892594 1.705397
v -0.000001 -8.333293 1.705397
v 2.356999 -9.023693 0.205397
v -0.000001 -9.999993 0.205397
v 2.356999 -5.690393 3.205397
v -0.000001 -6.666693 3.205397
v 4.713999 -4.713994 3.205396
v 7.071099 -7.071094 0.205397
v 4.713999 -8.047394 0.205397
v -0.000001 -6.666694 -2.127903
v 4.713999 -4.713994 -2.127904
v 2.356999 -2.356994 -4.461304
v -0.000001 -3.333294 -4.461303
v -0.000001 0.000006 -6.794604
v -4.714002 -4.713994 3.205396
v -5.892600 -5.892594 1.705397
v -3.535501 -8.535493 0.205397
v -7.071101 -7.071094 0.205397
v -4.714002 -4.713994 -2.127904
v -2.357001 -2.356994 -4.461304
v -8.047400 -4.713994 0.205397
v -8.333301 0.000007 1.705396
v -9.023702 -2.356994 0.205396
v -10.000001 0.000006 0.205396
v -5.690400 -2.356993 3.205396
v -6.666701 0.000007 3.205396
v -6.666701 0.000006 -2.127904
v -3.333301 0.000006 -4.461304
v -8.535501 3.535506 0.205396
v -7.071101 7.071106 0.205396
v -4.714002 4.714007 3.205396
v -4.714002 4.714006 -2.127904
v -2.357001 2.357006 -4.461304
v -3.535501 8.535506 0.205396
v -0.000001 6.666707 3.205396
v -0.000001 10.000007 0.205395
v -0.000001 6.666706 -2.127904
v -0.000001 3.333306 -4.461304
v 3.535499 8.535506 0.205396
v 4.713999 4.714007 3.205396
v 7.071099 7.071106 0.205396
v 4.713999 4.714006 -2.127904
v 2.356999 2.357006 -4.461304
v 8.535500 3.535506 0.205396
v 6.666699 0.000007 3.205396
v 9.999999 0.000006 0.205396
v 6.666699 0.000006 -2.127904
v 3.333299 0.000006 -4.461304
v 8.535500 -3.535494 0.205396
vn 0.2670 -0.6447 0.7163
vn 0.2670 -0.6446 0.7163
vn 0.2311 -0.5579 -0.7971
vn 0.2311 -0.5579 -0.7970
vn -0.2670 -0.6446 0.7163
vn -0.2670 -0.6447 0.7163
vn -0.2311 -0.5579 -0.7971
vn -0.2311 -0.5580 -0.7970
vn -0.2311 -0.5579 -0.7970
vn -0.6447 -0.2670 0.7163
vn -0.6446 -0.2670 0.7163
vn -0.5579 -0.2311 -0.7971
vn -0.5579 -0.2311 -0.7970
vn -0.6447 0.2670 0.7163
vn -0.6447 0.2671 0.7163
vn -0.5579 0.2311 -0.7971
vn -0.5580 0.2311 -0.7970
vn -0.5579 0.2311 -0.7970
vn -0.2670 0.6447 0.7163
vn -0.2311 0.5579 -0.7971
vn -0.2311 0.5579 -0.7970
vn 0.2670 0.6447 0.7163
vn 0.2311 0.5579 -0.7971
vn 0.2311 0.5580 -0.7970
vn 0.2311 0.5579 -0.7970
vn 0.6447 0.2670 0.7163
vn 0.5579 0.2311 -0.7971
vn 0.5579 0.2311 -0.7970
vn 0.5579 -0.2311 -0.7971
vn 0.5580 -0.2311 -0.7970
vn 0.5579 -0.2311 -0.7970
vn 0.6446 -0.2670 0.7163
vn 0.6447 -0.2670 0.7163
vn 0.6447 -0.2671 0.7163
vn -0.0000 -0.0000 1.0000
vt 0.520354 0.381802
vt 0.520352 0.185860
vt 0.567658 0.244641
vt 0.567658 0.166265
vt 0.473049 0.283829
vt 0.473049 0.205453
vt 0.473046 0.362206
vt 0.567658 0.401397
vt 0.567657 0.323018
vt 0.252465 0.828421
vt 0.317064 0.722005
vt 0.367854 0.781698
vt 0.150884 0.709035
vt 0.215485 0.602615
vt 0.266275 0.662311
vt 0.086284 0.815453
vt 0.137073 0.875146
vt 0.021685 0.921870
vt 0.362206 0.094612
vt 0.381802 0.047304
vt 0.484527 0.083135
vt 0.401397 0.000000
vt 0.252462 0.973955
vt 0.367852 0.890848
vt 0.367854 1.000000
vt 0.137073 0.947913
vt 0.323018 0.000001
vt 0.185859 0.047306
vt 0.244641 0.000000
vt 0.166265 0.000000
vt 0.283829 0.094609
vt 0.205453 0.094609
vt 0.709212 0.094609
vt 0.713069 0.000000
vt 0.779988 0.000000
vt 0.575375 0.094613
vt 0.579231 0.000000
vt 0.646151 0.000001
vt 0.571516 0.189221
vt 0.638434 0.189221
vt 0.567658 0.283830
vt 0.083135 0.083132
vt 0.000000 0.166261
vt 0.094612 0.205452
vt 0.803848 0.205452
vt 0.850965 0.083132
vt 0.921946 0.166261
vt 0.685753 0.244641
vt 0.000002 0.283828
vt 0.094609 0.362206
vt -0.000000 0.401393
vt 0.921944 0.283828
vt 0.921946 0.401393
vt 0.803852 0.362206
vt 0.685753 0.323017
vt 0.083132 0.484524
vt 0.205452 0.473046
vt 0.166261 0.567658
vt 0.709213 0.473046
vt 0.850968 0.484524
vt 0.779992 0.567658
vt 0.638435 0.378438
vt 0.283828 0.567656
vt 0.362206 0.473049
vt 0.401393 0.567658
vt 0.679612 0.567656
vt 0.579235 0.567658
vt 0.575376 0.473050
vt 0.571517 0.378438
vt 0.007228 0.685727
vt 0.107742 0.585138
vt 0.000000 0.567658
vt 0.014457 0.803801
vt 0.484524 0.484527
s 0
usemtl color_7720667
f 1/1/1 2/2/1 3/3/1
f 2/2/1 4/4/1 3/3/1
f 5/5/1 6/6/1 2/2/1
f 1/1/2 7/7/2 5/5/2
f 8/8/1 1/1/1 9/9/1
f 1/1/1 3/3/1 9/9/1
f 5/5/1 2/2/1 1/1/1
f 10/10/3 3/11/3 4/12/3
f 11/13/3 8/14/3 9/15/3
f 9/15/3 3/11/3 11/13/3
f 12/16/3 10/10/3 13/17/3
f 3/11/4 12/16/4 11/13/4
f 14/18/3 12/16/3 13/17/3
f 10/10/3 12/16/3 3/11/3
f 6/6/5 15/19/5 16/20/5
f 17/21/6 16/20/6 18/22/6
f 16/20/6 17/21/6 2/2/6
f 2/2/6 17/21/6 4/4/6
f 6/6/6 16/20/6 2/2/6
f 19/23/7 10/10/7 17/24/7
f 17/24/7 10/10/7 4/12/7
f 19/23/7 17/24/7 18/25/7
f 13/17/8 19/23/8 20/26/8
f 20/26/7 14/18/7 13/17/7
f 10/10/9 19/23/9 13/17/9
f 21/27/10 22/28/10 23/29/10
f 22/28/10 24/30/10 23/29/10
f 25/31/10 26/32/10 22/28/10
f 16/20/11 15/19/11 25/31/11
f 18/22/10 16/20/10 21/27/10
f 16/20/10 22/28/10 21/27/10
f 25/31/10 22/28/10 16/20/10
f 27/33/12 23/34/12 24/35/12
f 19/36/12 18/37/12 21/38/12
f 21/38/12 23/34/12 19/36/12
f 20/39/12 27/33/12 28/40/12
f 20/39/13 19/36/13 23/34/13
f 28/40/12 14/41/12 20/39/12
f 27/33/12 20/39/12 23/34/12
f 29/42/14 22/28/14 30/43/14
f 31/44/14 30/43/14 22/28/14
f 31/44/15 22/28/15 26/32/15
f 29/42/14 24/30/14 22/28/14
f 32/45/16 27/33/16 29/46/16
f 29/46/16 27/33/16 24/35/16
f 32/45/16 29/46/16 30/47/16
f 28/40/17 32/45/17 33/48/17
f 33/48/16 14/41/16 28/40/16
f 27/33/18 32/45/18 28/40/18
f 34/49/19 35/50/19 36/51/19
f 30/43/19 31/44/19 34/49/19
f 35/50/19 34/49/19 31/44/19
f 34/52/20 36/53/20 37/54/20
f 34/52/20 32/45/20 30/47/20
f 32/45/20 34/52/20 37/54/20
f 33/48/20 38/55/20 14/41/20
f 33/48/21 32/45/21 37/54/21
f 38/55/20 33/48/20 37/54/20
f 39/56/22 40/57/22 41/58/22
f 36/51/22 35/50/22 39/56/22
f 40/57/22 39/56/22 35/50/22
f 42/59/23 37/54/23 39/60/23
f 39/60/23 37/54/23 36/53/23
f 42/59/23 39/60/23 41/61/23
f 38/55/24 42/59/24 43/62/24
f 43/62/23 14/41/23 38/55/23
f 37/54/25 42/59/25 38/55/25
f 44/63/26 45/64/26 46/65/26
f 41/58/26 40/57/26 44/63/26
f 45/64/26 44/63/26 40/57/26
f 44/66/27 46/67/27 47/68/27
f 44/66/27 42/59/27 41/61/27
f 42/59/27 44/66/27 47/68/27
f 43/62/27 48/69/27 14/41/27
f 43/62/28 42/59/28 47/68/28
f 48/69/27 43/62/27 47/68/27
f 11/13/29 47/70/29 49/71/29
f 49/71/29 47/70/29 46/72/29
f 11/13/29 49/71/29 8/14/29
f 48/73/30 11/13/30 12/16/30
f 12/16/29 14/18/29 48/73/29
f 47/70/31 11/13/31 48/73/31
f 45/64/32 7/7/32 1/1/32
f 49/74/33 1/1/33 8/8/33
f 49/74/34 46/65/34 1/1/34
f 45/64/33 1/1/33 46/65/33
f 5/5/35 25/31/35 15/19/35
f 26/32/35 25/31/35 31/44/35
f 25/31/35 35/50/35 31/44/35
f 6/6/35 5/5/35 15/19/35
f 45/64/35 5/5/35 7/7/35
f 25/31/35 40/57/35 35/50/35
f 45/64/35 40/57/35 5/5/35
f 5/5/35 40/57/35 25/31/35
