# Blender 4.3.2
# www.blender.org
mtllib bombpodfins.mtl
o Pod_BombPart.002
v 4.554752 -4.078291 -5.430049
v 4.468559 -5.305069 -3.748225
v 5.430065 -4.078291 -4.554737
v 3.748241 -5.305069 -4.468545
v 2.616472 -7.069830 -3.119292
v 3.119298 -7.069830 -2.616468
v 5.430065 6.781818 -4.554738
v 3.748241 6.514015 -4.468546
v 4.554752 6.781818 -5.430050
v 4.468559 6.514015 -3.748226
v -4.554729 -4.078291 -5.430049
v -5.430041 -4.078291 -4.554737
v -4.468537 -5.305069 -3.748225
v -3.748217 -5.305069 -4.468545
v -2.616472 -7.069830 -3.119297
v -3.119284 -7.069830 -2.616465
v -5.430041 6.781818 -4.554738
v -4.554729 6.781818 -5.430050
v -4.468537 6.514015 -3.748226
v -3.748217 6.514015 -4.468546
v -5.430041 -4.078290 4.554744
v -4.554729 -4.078290 5.430057
v -4.468537 -5.305068 3.748233
v -3.748217 -5.305068 4.468551
v -2.616477 -7.069830 3.119294
v -3.119292 -7.069830 2.616471
v -5.430041 6.781819 4.554743
v -4.468537 6.514016 3.748232
v -3.748217 6.514016 4.468550
v -4.554729 6.781819 5.430056
v 3.748241 6.514016 4.468550
v 4.468559 6.514016 3.748232
v 5.430065 6.781819 4.554743
v 4.554752 6.781819 5.430056
v 5.430065 -4.078290 4.554744
v 3.748241 -5.305068 4.468551
v 4.554752 -4.078290 5.430057
v 4.468559 -5.305068 3.748233
v 2.616475 -7.069830 3.119292
v 3.119289 -7.069830 2.616468
v -2.616480 6.246210 -3.119298
v -4.468537 6.514015 -3.748226
v -3.748217 6.514015 -4.468546
v -3.119292 6.246210 -2.616466
v -4.468537 6.514016 3.748232
v -3.119301 6.246210 2.616472
v -2.616480 6.246210 3.119296
v -3.748217 6.514016 4.468550
v 3.748241 6.514016 4.468550
v 2.616468 6.246210 3.119293
v 3.119282 6.246210 2.616469
v 4.468559 6.514016 3.748232
v 2.616465 6.246210 -3.119290
v 3.748241 6.514015 -4.468546
v 3.119291 6.246210 -2.616469
v 4.468559 6.514015 -3.748226
v -5.430041 -1.872002 -4.554741
v -4.554729 6.781818 -5.430050
v -5.430041 6.781818 -4.554738
v -4.554724 -1.872002 -5.430053
v -5.430041 -4.078291 -4.554737
v -4.554729 -4.078291 -5.430049
v 5.430065 6.781818 -4.554738
v 4.554752 6.781818 -5.430050
v 5.430070 -1.872002 -4.554741
v 4.554754 -1.872002 -5.430057
v 5.430065 -4.078291 -4.554737
v 4.554752 -4.078291 -5.430049
v 5.430068 -1.872001 4.554745
v 5.430065 -4.078290 4.554744
v 4.554752 -4.078290 5.430057
v 4.554753 -1.872001 5.430054
v 5.430065 6.781819 4.554743
v 4.554752 6.781819 5.430056
v -5.430041 -1.872001 4.554744
v -4.554729 -4.078290 5.430057
v -5.430041 -4.078290 4.554744
v -4.554724 -1.872001 5.430057
v -5.430041 6.781819 4.554743
v -4.554729 6.781819 5.430056
v 4.554752 6.781818 -5.430050
v 3.748241 6.514015 -4.468546
v 4.554754 -1.872002 -5.430057
v 3.748243 -2.619294 -4.468553
v 4.554752 -4.078291 -5.430049
v 2.616465 6.246210 -3.119290
v 3.748241 -5.305069 -4.468545
v 2.616472 -3.635576 -3.119292
v 2.616472 -7.069830 -3.119292
v 4.468559 6.514015 -3.748226
v 5.430065 6.781818 -4.554738
v 5.430070 -1.872002 -4.554741
v 4.468559 -2.619294 -3.748229
v 3.119291 6.246210 -2.616469
v 5.430065 -4.078291 -4.554737
v 3.119298 -3.635576 -2.616469
v 4.468559 -5.305069 -3.748225
v 3.119298 -7.069830 -2.616468
v -5.430041 6.781818 -4.554738
v -4.468537 6.514015 -3.748226
v -5.430041 -1.872002 -4.554741
v -4.468537 -2.619294 -3.748233
v -5.430041 -4.078291 -4.554737
v -3.119292 6.246210 -2.616466
v -4.468537 -5.305069 -3.748225
v -3.119284 -3.635576 -2.616465
v -3.119284 -7.069830 -2.616465
v -3.748217 6.514015 -4.468546
v -4.554729 6.781818 -5.430050
v -4.554724 -1.872002 -5.430053
v -3.748212 -2.619294 -4.468549
v -2.616480 6.246210 -3.119298
v -4.554729 -4.078291 -5.430049
v -2.616472 -3.635576 -3.119297
v -3.748217 -5.305069 -4.468545
v -2.616472 -7.069830 -3.119297
v -4.554729 6.781819 5.430056
v -3.748217 6.514016 4.468550
v -4.554724 -1.872001 5.430057
v -3.748217 -2.619293 4.468546
v -4.554729 -4.078290 5.430057
v -2.616480 6.246210 3.119296
v -3.748217 -5.305068 4.468551
v -2.616477 -3.635576 3.119294
v -2.616477 -7.069830 3.119294
v -4.468537 6.514016 3.748232
v -5.430041 6.781819 4.554743
v -5.430041 -1.872001 4.554744
v -4.468529 -2.619293 3.748231
v -3.119301 6.246210 2.616472
v -5.430041 -4.078290 4.554744
v -3.119292 -3.635576 2.616470
v -4.468537 -5.305068 3.748233
v -3.119292 -7.069830 2.616471
v 3.748241 6.514016 4.468550
v 4.554752 6.781819 5.430056
v 4.554753 -1.872001 5.430054
v 3.748241 -2.619293 4.468550
v 2.616468 6.246210 3.119293
v 4.554752 -4.078290 5.430057
v 2.616475 -3.635576 3.119292
v 3.748241 -5.305068 4.468551
v 2.616475 -7.069830 3.119292
v 5.430065 6.781819 4.554743
v 4.468559 6.514016 3.748232
v 5.430068 -1.872001 4.554745
v 4.468563 -2.619293 3.748227
v 5.430065 -4.078290 4.554744
v 3.119282 6.246210 2.616469
v 4.468559 -5.305068 3.748233
v 3.119289 -3.635576 2.616467
v 3.119289 -7.069830 2.616468
v -2.357769 -3.753789 1.977677
v -1.977705 -3.753789 2.357737
v -2.357769 6.246210 1.977676
v -1.977713 6.246210 2.357738
v 1.977657 -3.753789 2.357733
v 2.357717 -3.753789 1.977670
v 1.977650 6.246210 2.357734
v 2.357709 6.246210 1.977672
v -2.357760 6.246210 -1.977682
v -1.977713 6.246210 -2.357749
v -2.357760 -3.753790 -1.977681
v -1.977705 -3.753790 -2.357749
v 2.357722 -3.753790 -1.977685
v 1.977660 -3.753790 -2.357745
v 2.357715 6.246210 -1.977686
v 1.977652 6.246210 -2.357746
v -3.119292 -3.635576 2.616470
v -3.119284 -3.635576 -2.616465
v -3.119301 6.246210 2.616472
v -3.119292 6.246210 -2.616466
v 2.616465 6.246210 -3.119290
v -2.616480 6.246210 -3.119298
v 2.616472 -3.635576 -3.119292
v -2.616472 -3.635576 -3.119297
v -2.616480 6.246210 3.119296
v 2.616468 6.246210 3.119293
v -2.616477 -3.635576 3.119294
v 2.616475 -3.635576 3.119292
v 3.119282 6.246210 2.616469
v 3.119291 6.246210 -2.616469
v 3.119289 -3.635576 2.616467
v 3.119298 -3.635576 -2.616469
v -2.357769 6.246210 1.977676
v -2.357760 6.246210 -1.977682
v -2.357769 -3.753789 1.977677
v -2.357760 -3.753790 -1.977681
v -1.977713 6.246210 -2.357749
v 1.977652 6.246210 -2.357746
v -1.977705 -3.753790 -2.357749
v 1.977660 -3.753790 -2.357745
v 2.357715 6.246210 -1.977686
v 2.357709 6.246210 1.977672
v 2.357722 -3.753790 -1.977685
v 2.357717 -3.753789 1.977670
v -1.977705 -3.753789 2.357737
v 1.977657 -3.753789 2.357733
v -1.977713 6.246210 2.357738
v 1.977650 6.246210 2.357734
v 2.616472 -3.635576 -3.119292
v 3.119298 -3.635576 -2.616469
v 2.616472 -7.069830 -3.119292
v 3.119298 -7.069830 -2.616468
v 3.119289 -3.635576 2.616467
v 2.616475 -3.635576 3.119292
v 3.119289 -7.069830 2.616468
v 2.616475 -7.069830 3.119292
v -3.119292 -7.069830 2.616471
v -2.616477 -7.069830 3.119294
v -3.119292 -3.635576 2.616470
v -2.616477 -3.635576 3.119294
v -3.119284 -3.635576 -2.616465
v -2.616472 -3.635576 -3.119297
v -3.119284 -7.069830 -2.616465
v -2.616472 -7.069830 -3.119297
v -1.977705 -3.753789 2.357737
v -2.616477 -3.635576 3.119294
v 1.977657 -3.753789 2.357733
v 2.616475 -3.635576 3.119292
v -2.357760 -3.753790 -1.977681
v -3.119284 -3.635576 -2.616465
v -2.357769 -3.753789 1.977677
v -3.119292 -3.635576 2.616470
v 1.977660 -3.753790 -2.357745
v 2.616472 -3.635576 -3.119292
v -1.977705 -3.753790 -2.357749
v -2.616472 -3.635576 -3.119297
v 3.119298 -3.635576 -2.616469
v 2.357722 -3.753790 -1.977685
v 3.119289 -3.635576 2.616467
v 2.357717 -3.753789 1.977670
v -3.119292 -3.635576 2.616470
v -2.616477 -3.635576 3.119294
v -1.977705 -3.753789 2.357737
v -2.357769 -3.753789 1.977677
v 2.357717 -3.753789 1.977670
v 2.616475 -3.635576 3.119292
v 3.119289 -3.635576 2.616467
v 1.977657 -3.753789 2.357733
v -3.119284 -3.635576 -2.616465
v -2.357760 -3.753790 -1.977681
v -1.977705 -3.753790 -2.357749
v -2.616472 -3.635576 -3.119297
v 2.616472 -3.635576 -3.119292
v 2.357722 -3.753790 -1.977685
v 3.119298 -3.635576 -2.616469
v 1.977660 -3.753790 -2.357745
v -1.977713 6.246210 2.357738
v -2.616480 6.246210 3.119296
v -2.357769 6.246210 1.977676
v 1.977650 6.246210 2.357734
v -3.119301 6.246210 2.616472
v 2.616468 6.246210 3.119293
v 3.119282 6.246210 2.616469
v 2.357709 6.246210 1.977672
v 3.119291 6.246210 -2.616469
v 2.357715 6.246210 -1.977686
v 2.616465 6.246210 -3.119290
v 1.977652 6.246210 -2.357746
v -2.616480 6.246210 -3.119298
v -1.977713 6.246210 -2.357749
v -3.119292 6.246210 -2.616466
v -2.357760 6.246210 -1.977682
vn 0.4953 -0.7138 -0.4953
vn 0.5013 -0.7052 -0.5014
vn 0.5015 -0.7050 -0.5015
vn -0.1481 0.9778 0.1481
vn -0.5015 -0.7052 -0.5013
vn -0.4953 -0.7138 -0.4953
vn -0.5015 -0.7052 -0.5012
vn -0.5015 -0.7050 -0.5015
vn 0.1481 0.9778 0.1481
vn -0.5014 -0.7052 0.5014
vn -0.4953 -0.7138 0.4953
vn -0.5014 -0.7052 0.5013
vn -0.5015 -0.7050 0.5015
vn 0.1481 0.9778 -0.1481
vn -0.1481 0.9778 -0.1481
vn 0.4953 -0.7138 0.4953
vn 0.4952 -0.7139 0.4952
vn 0.5014 -0.7051 0.5014
vn 0.5015 -0.7050 0.5015
vn 0.1067 0.9885 0.1067
vn 0.1067 0.9885 -0.1067
vn -0.1067 0.9885 -0.1067
vn -0.1067 0.9885 0.1067
vn -0.7071 -0.0000 -0.7071
vn 0.7071 -0.0000 -0.7071
vn 0.7071 -0.0000 0.7071
vn -0.7071 -0.0000 0.7071
vn -0.7662 -0.0000 -0.6427
vn 0.6427 -0.0000 0.7662
vn 0.6426 -0.0000 0.7662
vn -0.6427 -0.0000 0.7662
vn 0.7662 -0.0000 -0.6427
vn 0.7662 -0.0000 -0.6426
vn 0.7662 -0.0000 0.6426
vn 0.7662 -0.0000 0.6427
vn -0.6427 -0.0000 -0.7662
vn -0.7662 -0.0000 0.6427
vn 0.6427 -0.0000 -0.7662
vn 0.6426 -0.0000 -0.7662
vn -1.0000 -0.0000 -0.0000
vn -0.0000 -0.0000 -1.0000
vn -0.0000 -0.0000 1.0000
vn 1.0000 -0.0000 -0.0000
vn -0.0000 -0.9882 0.1534
vn -0.1534 -0.9882 -0.0000
vn -0.0000 -0.9882 -0.1534
vn 0.1534 -0.9882 -0.0000
vn -0.0838 -0.9929 0.0838
vn 0.0838 -0.9929 0.0838
vn -0.0838 -0.9929 -0.0838
vn 0.0838 -0.9929 -0.0838
vn -0.0000 1.0000 -0.0000
vt 0.094716 0.971930
vt 0.066179 0.970255
vt 0.094515 0.950042
vt 0.066013 0.952242
vt 0.025311 0.955336
vt 0.025426 0.967910
vt 0.513112 0.984720
vt 0.529506 0.970968
vt 0.528037 0.999645
vt 0.541789 0.983250
vt 0.066238 0.885341
vt 0.094762 0.883446
vt 0.094728 0.905335
vt 0.066210 0.903354
vt 0.025485 0.900572
vt 0.025504 0.887998
vt 0.541789 0.830866
vt 0.513112 0.829397
vt 0.528037 0.814472
vt 0.529506 0.843149
vt 0.065989 0.938533
vt 0.094510 0.918582
vt 0.094510 0.940471
vt 0.065989 0.920520
vt 0.025260 0.923240
vt 0.025260 0.935814
vt 0.681890 0.843149
vt 0.669608 0.830867
vt 0.683360 0.814472
vt 0.698285 0.829397
vt 0.683360 0.999645
vt 0.669608 0.983250
vt 0.681890 0.970968
vt 0.698285 0.984720
vt 0.095295 0.876880
vt 0.066774 0.874942
vt 0.095295 0.854991
vt 0.066774 0.856929
vt 0.026045 0.872223
vt 0.026045 0.859649
vt 0.552512 0.862445
vt 0.561086 0.853872
vt 0.658885 0.862445
vt 0.650311 0.853872
vt 0.650311 0.960244
vt 0.658885 0.951671
vt 0.561086 0.960244
vt 0.552512 0.951671
vt 0.272063 0.883716
vt 0.272030 0.905605
vt 0.130781 0.883501
vt 0.130748 0.905390
vt 0.130734 0.971599
vt 0.271808 0.948412
vt 0.272009 0.970301
vt 0.130533 0.949711
vt 0.131315 0.854990
vt 0.131315 0.876880
vt 0.272596 0.854991
vt 0.272596 0.876880
vt 0.130530 0.940471
vt 0.130530 0.918582
vt 0.271812 0.940471
vt 0.271812 0.918582
vt 0.801303 0.714470
vt 0.785897 0.554276
vt 0.801303 0.549160
vt 0.785897 0.728745
vt 0.801303 0.756615
vt 0.764278 0.559391
vt 0.785897 0.780050
vt 0.764278 0.748158
vt 0.764278 0.813761
vt 0.450612 0.714470
vt 0.450612 0.549160
vt 0.466019 0.554275
vt 0.466018 0.728745
vt 0.487637 0.559391
vt 0.450612 0.756616
vt 0.487637 0.748159
vt 0.466019 0.780050
vt 0.487637 0.813761
vt 0.991687 0.712540
vt 0.976281 0.552346
vt 0.991687 0.547230
vt 0.976281 0.726815
vt 0.991687 0.754685
vt 0.954661 0.557462
vt 0.976281 0.778120
vt 0.954661 0.746229
vt 0.954661 0.811831
vt 0.627290 0.714470
vt 0.627290 0.549160
vt 0.642696 0.554276
vt 0.642696 0.728745
vt 0.664315 0.559391
vt 0.627290 0.756615
vt 0.664315 0.748158
vt 0.642696 0.780050
vt 0.664315 0.813761
vt 0.447890 0.726535
vt 0.432484 0.566341
vt 0.447890 0.561225
vt 0.432484 0.740810
vt 0.447890 0.768681
vt 0.410865 0.571457
vt 0.432484 0.792115
vt 0.410864 0.760224
vt 0.410864 0.825827
vt 0.817674 0.712540
vt 0.817674 0.547230
vt 0.833080 0.552346
vt 0.833080 0.726815
vt 0.854699 0.557462
vt 0.817674 0.754685
vt 0.854699 0.746229
vt 0.833080 0.778120
vt 0.854699 0.811831
vt 0.273876 0.726535
vt 0.273876 0.561225
vt 0.289283 0.566341
vt 0.289283 0.740810
vt 0.310902 0.571457
vt 0.273876 0.768681
vt 0.310902 0.760224
vt 0.289283 0.792115
vt 0.310902 0.825827
vt 0.624626 0.714470
vt 0.609220 0.554275
vt 0.624626 0.549160
vt 0.609220 0.728745
vt 0.624626 0.756615
vt 0.587601 0.559391
vt 0.609220 0.780050
vt 0.587600 0.748159
vt 0.587600 0.813761
vt 0.710362 0.153032
vt 0.880273 0.143899
vt 0.880273 0.153032
vt 0.710362 0.143899
vt 0.710362 0.076694
vt 0.880273 0.067561
vt 0.880273 0.076694
vt 0.710362 0.067561
vt 0.880273 0.220237
vt 0.710362 0.229370
vt 0.710362 0.220237
vt 0.880273 0.229370
vt 0.337626 0.951841
vt 0.328494 0.781930
vt 0.337626 0.781930
vt 0.328493 0.951841
vt 0.710362 0.296576
vt 0.880273 0.296576
vt 0.880273 0.000356
vt 0.710362 0.000355
vt 0.225741 0.715754
vt 0.237823 0.774106
vt 0.225741 0.774106
vt 0.237823 0.715754
vt 0.222541 0.833168
vt 0.210459 0.774817
vt 0.222541 0.774817
vt 0.210459 0.833168
vt 0.225741 0.774817
vt 0.237823 0.833168
vt 0.225741 0.833168
vt 0.237823 0.774817
vt 0.222541 0.774106
vt 0.210459 0.715754
vt 0.222541 0.715754
vt 0.210459 0.774106
vt 0.786083 0.908054
vt 0.707587 0.921067
vt 0.718501 0.908054
vt 0.796998 0.921067
vt 0.712007 0.901560
vt 0.698995 0.823064
vt 0.712007 0.833978
vt 0.698995 0.912475
vt 0.718501 0.827484
vt 0.796998 0.814472
vt 0.786083 0.827484
vt 0.707587 0.814472
vt 0.805590 0.912475
vt 0.792577 0.833978
vt 0.805589 0.823064
vt 0.792577 0.901560
vt 0.639419 0.866857
vt 0.645899 0.873337
vt 0.645899 0.940779
vt 0.639419 0.947259
vt 0.571977 0.947259
vt 0.565497 0.940779
vt 0.565497 0.873337
vt 0.571977 0.866857
s 1
f 3/1/1 2/2/2 1/3/1
f 2/2/2 4/4/2 1/3/1
f 4/4/2 2/2/2 5/5/3
f 2/2/2 6/6/3 5/5/3
f 9/7/4 8/8/4 7/9/4
f 7/9/4 8/8/4 10/10/4
f 13/11/5 12/12/6 11/13/6
f 14/14/7 13/11/5 11/13/6
f 14/14/7 15/15/8 13/11/5
f 15/15/8 16/16/8 13/11/5
f 19/17/9 18/18/9 17/19/9
f 20/20/9 18/18/9 19/17/9
f 23/21/10 22/22/11 21/23/11
f 23/21/10 24/24/12 22/22/11
f 25/25/13 24/24/12 23/21/10
f 25/25/13 23/21/10 26/26/13
f 29/27/14 28/28/14 27/29/14
f 29/27/14 27/29/14 30/30/14
f 33/31/15 32/32/15 31/33/15
f 34/34/15 33/31/15 31/33/15
f 37/35/16 36/36/17 35/37/16
f 35/37/16 36/36/17 38/38/18
f 36/36/17 39/39/19 38/38/18
f 38/38/18 39/39/19 40/40/19
f 43/20/20 42/17/20 41/41/20
f 41/41/20 42/17/20 44/42/20
f 47/43/21 46/44/21 45/28/21
f 47/43/21 45/28/21 48/27/21
f 51/45/22 50/46/22 49/33/22
f 52/32/22 51/45/22 49/33/22
f 55/47/23 54/8/23 53/48/23
f 56/10/23 54/8/23 55/47/23
f 59/49/24 58/50/24 57/51/24
f 57/51/24 58/50/24 60/52/24
f 57/51/24 60/52/24 61/12/24
f 61/12/24 60/52/24 62/13/24
f 65/53/25 64/54/25 63/55/25
f 66/56/25 64/54/25 65/53/25
f 67/1/25 66/56/25 65/53/25
f 68/3/25 66/56/25 67/1/25
f 71/35/26 70/37/26 69/57/26
f 72/58/26 71/35/26 69/57/26
f 72/58/26 69/57/26 73/59/26
f 74/60/26 72/58/26 73/59/26
f 77/23/27 76/22/27 75/61/27
f 76/22/27 78/62/27 75/61/27
f 75/61/27 78/62/27 79/63/27
f 78/62/27 80/64/27 79/63/27
f 83/65/28 82/66/28 81/67/28
f 84/68/28 82/66/28 83/65/28
f 85/69/28 84/68/28 83/65/28
f 84/68/28 86/70/28 82/66/28
f 87/71/28 84/68/28 85/69/28
f 88/72/28 86/70/28 84/68/28
f 87/71/28 88/72/28 84/68/28
f 89/73/28 88/72/28 87/71/28
f 92/74/29 91/75/29 90/76/29
f 93/77/29 92/74/29 90/76/29
f 93/77/29 90/76/29 94/78/30
f 95/79/29 92/74/29 93/77/29
f 96/80/29 93/77/29 94/78/30
f 97/81/29 95/79/29 93/77/29
f 97/81/29 93/77/29 96/80/29
f 98/82/29 97/81/29 96/80/29
f 101/83/31 100/84/31 99/85/31
f 102/86/31 100/84/31 101/83/31
f 103/87/31 102/86/31 101/83/31
f 102/86/31 104/88/31 100/84/31
f 105/89/31 102/86/31 103/87/31
f 102/86/31 106/90/31 104/88/31
f 105/89/31 106/90/31 102/86/31
f 105/89/31 107/91/31 106/90/31
f 110/92/32 109/93/32 108/94/32
f 111/95/32 110/92/32 108/94/32
f 111/95/32 108/94/32 112/96/33
f 113/97/32 110/92/32 111/95/32
f 111/95/32 112/96/33 114/98/33
f 115/99/32 113/97/32 111/95/32
f 115/99/32 111/95/32 114/98/33
f 115/99/32 114/98/33 116/100/32
f 119/101/34 118/102/35 117/103/35
f 120/104/34 118/102/35 119/101/34
f 121/105/35 120/104/34 119/101/34
f 120/104/34 122/106/34 118/102/35
f 123/107/34 120/104/34 121/105/35
f 124/108/34 122/106/34 120/104/34
f 123/107/34 124/108/34 120/104/34
f 125/109/34 124/108/34 123/107/34
f 128/110/36 127/111/36 126/112/36
f 129/113/36 128/110/36 126/112/36
f 129/113/36 126/112/36 130/114/36
f 131/115/36 128/110/36 129/113/36
f 129/113/36 130/114/36 132/116/36
f 133/117/36 131/115/36 129/113/36
f 133/117/36 129/113/36 132/116/36
f 133/117/36 132/116/36 134/118/36
f 137/119/37 136/120/37 135/121/37
f 138/122/37 137/119/37 135/121/37
f 138/122/37 135/121/37 139/123/37
f 140/124/37 137/119/37 138/122/37
f 141/125/37 138/122/37 139/123/37
f 142/126/37 140/124/37 138/122/37
f 142/126/37 138/122/37 141/125/37
f 143/127/37 142/126/37 141/125/37
f 146/128/38 145/129/38 144/130/38
f 147/131/38 145/129/38 146/128/38
f 148/132/38 147/131/38 146/128/38
f 147/131/38 149/133/39 145/129/38
f 150/134/38 147/131/38 148/132/38
f 151/135/38 149/133/39 147/131/38
f 150/134/38 151/135/38 147/131/38
f 152/136/38 151/135/38 150/134/38
f 155/137/25 154/138/25 153/139/25
f 156/140/25 154/138/25 155/137/25
f 159/141/24 158/142/24 157/143/24
f 160/144/24 158/142/24 159/141/24
f 163/145/26 162/146/26 161/147/26
f 164/148/26 162/146/26 163/145/26
f 167/149/27 166/150/27 165/151/27
f 168/152/27 166/150/27 167/149/27
f 171/114/40 170/90/40 169/116/40
f 172/88/40 170/90/40 171/114/40
f 175/72/41 174/96/41 173/70/41
f 176/98/41 174/96/41 175/72/41
f 179/108/42 178/123/42 177/106/42
f 180/125/42 178/123/42 179/108/42
f 183/135/43 182/78/43 181/133/43
f 184/80/43 182/78/43 183/135/43
f 187/139/43 186/147/43 185/137/43
f 188/145/43 186/147/43 187/139/43
f 191/148/42 190/153/42 189/146/42
f 192/154/42 190/153/42 191/148/42
f 195/155/40 194/144/40 193/156/40
f 196/142/40 194/144/40 195/155/40
f 199/140/41 198/143/41 197/138/41
f 200/141/41 198/143/41 199/140/41
f 203/157/27 202/158/27 201/159/27
f 204/160/27 202/158/27 203/157/27
f 207/161/24 206/162/24 205/163/24
f 208/164/24 206/162/24 207/161/24
f 211/165/25 210/166/25 209/167/25
f 212/168/25 210/166/25 211/165/25
f 215/169/26 214/170/26 213/171/26
f 216/172/26 214/170/26 215/169/26
f 219/173/44 218/174/44 217/175/44
f 220/176/44 218/174/44 219/173/44
f 223/177/45 222/178/45 221/179/45
f 224/180/45 222/178/45 223/177/45
f 227/181/46 226/182/46 225/183/46
f 228/184/46 226/182/46 227/181/46
f 231/185/47 230/186/47 229/187/47
f 232/188/47 230/186/47 231/185/47
f 235/175/48 234/174/48 233/180/48
f 235/175/48 233/180/48 236/177/48
f 239/185/49 238/176/49 237/188/49
f 237/188/49 238/176/49 240/173/49
f 243/181/50 242/179/50 241/178/50
f 244/184/50 243/181/50 241/178/50
f 247/187/51 246/186/51 245/182/51
f 246/186/51 248/183/51 245/182/51
f 251/189/52 250/43/52 249/190/52
f 249/190/52 250/43/52 252/191/52
f 253/44/52 250/43/52 251/189/52
f 252/191/52 250/43/52 254/46/52
f 254/46/52 255/45/52 252/191/52
f 252/191/52 255/45/52 256/192/52
f 255/45/52 257/47/52 256/192/52
f 257/47/52 258/193/52 256/192/52
f 257/47/52 259/48/52 258/193/52
f 258/193/52 259/48/52 260/194/52
f 260/194/52 259/48/52 261/41/52
f 260/194/52 261/41/52 262/195/52
f 263/42/52 253/44/52 251/189/52
f 261/41/52 263/42/52 262/195/52
f 264/196/52 263/42/52 251/189/52
f 262/195/52 263/42/52 264/196/52
