# Blender 4.3.2
# www.blender.org
mtllib bombpod.mtl
o StreetCleaner_PodModel
v -4.601544 -2.000000 -0.316571
v -1.909312 -3.000000 -1.099576
v -4.143388 -2.000000 -2.390879
v -4.143388 -2.000000 -2.390879
v -1.909312 -3.000000 -1.099576
v -2.555231 -2.000000 -3.830342
v -2.393671 -2.000000 4.139220
v -0.253926 -2.000000 4.579804
v -1.105356 -3.000000 1.900836
v -2.393671 -2.000000 4.139220
v -1.105356 -3.000000 1.900836
v -3.827589 -2.000000 2.571877
v 4.135636 -2.000000 2.389702
v 4.564440 -2.000000 0.205896
v 1.893796 -3.000000 1.097217
v 4.135636 -2.000000 2.389702
v 1.893796 -3.000000 1.097217
v 2.502860 -2.000000 3.841129
v 1.089840 -3.000000 -1.903195
v 3.849157 -2.000000 -2.463577
v 2.385900 -2.000000 -4.140416
v 1.089840 -3.000000 -1.903195
v 2.385900 -2.000000 -4.140416
v 0.290794 -2.000000 -4.592948
v -3.180405 19.000000 1.836207
v -3.672414 19.000000 0.000002
v 0.000030 21.000000 -0.000002
v -1.836204 19.000000 3.180414
v -3.180405 19.000000 1.836207
v 0.000030 21.000000 -0.000002
v 0.000013 19.000000 3.672424
v -1.836204 19.000000 3.180414
v 0.000030 21.000000 -0.000002
v 1.836225 19.000000 3.180413
v 0.000013 19.000000 3.672424
v 0.000030 21.000000 -0.000002
v 1.836225 19.000000 3.180413
v 0.000030 21.000000 -0.000002
v 3.180432 19.000000 1.836213
v 3.180432 19.000000 1.836213
v 0.000030 21.000000 -0.000002
v 3.672435 19.000000 -0.000003
v 3.672435 19.000000 -0.000003
v 0.000030 21.000000 -0.000002
v 3.180426 19.000000 -1.836207
v 3.180426 19.000000 -1.836207
v 0.000030 21.000000 -0.000002
v 1.836226 19.000000 -3.180415
v 0.000015 19.000000 -3.672426
v 1.836226 19.000000 -3.180415
v 0.000030 21.000000 -0.000002
v -1.836196 19.000000 -3.180416
v 0.000015 19.000000 -3.672426
v 0.000030 21.000000 -0.000002
v 0.000030 21.000000 -0.000002
v -3.180404 19.000000 -1.836215
v -1.836196 19.000000 -3.180416
v -3.672414 19.000000 0.000002
v -3.180404 19.000000 -1.836215
v 0.000030 21.000000 -0.000002
v 0.000003 16.000000 5.735143
v 2.867573 16.000000 4.966783
v 0.000021 18.000000 -0.000007
v 0.000021 18.000000 -0.000007
v 2.867573 16.000000 4.966783
v 4.966784 16.000000 2.867571
v 0.000021 18.000000 -0.000007
v 4.966784 16.000000 2.867571
v 5.735144 16.000000 -0.000004
v 0.000021 18.000000 -0.000007
v 5.735144 16.000000 -0.000004
v 4.966784 16.000000 -2.867574
v 0.000021 18.000000 -0.000007
v 4.966784 16.000000 -2.867574
v 2.867572 16.000000 -4.966789
v 0.000021 18.000000 -0.000007
v 2.867572 16.000000 -4.966789
v -0.000003 16.000000 -5.735146
v 0.000021 18.000000 -0.000007
v -0.000003 16.000000 -5.735146
v -2.999999 16.000000 -5.196153
v 0.000021 18.000000 -0.000007
v -2.999999 16.000000 -5.196153
v -5.196152 16.000000 -3.000002
v 0.000021 18.000000 -0.000007
v -5.196152 16.000000 -3.000002
v -6.000000 16.000000 -0.000001
v 0.000021 18.000000 -0.000007
v -6.000000 16.000000 -0.000001
v -5.196152 16.000000 2.999999
v 0.000021 18.000000 -0.000007
v -5.196152 16.000000 2.999999
v -2.999999 16.000000 5.196150
v 0.000021 18.000000 -0.000007
v -2.999999 16.000000 5.196150
v 0.000003 16.000000 5.735143
v 0.000000 16.000000 5.999999
v 0.000003 16.000000 5.735143
v -2.999999 16.000000 5.196150
v -2.999999 16.000000 -5.196153
v -0.000003 16.000000 -5.735146
v 0.000000 16.000000 -6.000001
v 3.000000 0.000000 5.196152
v 0.000000 0.000000 6.000000
v 0.000000 16.000000 5.999999
v 3.000000 16.000000 5.196150
v 5.196152 0.000000 3.000000
v 3.000000 0.000000 5.196152
v 3.000000 16.000000 5.196150
v 5.196152 16.000000 2.999999
v 6.000000 -0.000000 -0.000001
v 5.196152 0.000000 3.000000
v 5.196152 16.000000 2.999999
v 6.000000 16.000000 -0.000002
v 5.196152 -0.000000 -2.999999
v 6.000000 -0.000000 -0.000001
v 6.000000 16.000000 -0.000002
v 5.196152 16.000000 -3.000000
v 3.000000 -0.000000 -5.196152
v 5.196152 -0.000000 -2.999999
v 5.196152 16.000000 -3.000000
v 3.000000 16.000000 -5.196153
v 0.000000 -0.000000 -6.000000
v 3.000000 -0.000000 -5.196152
v 3.000000 16.000000 -5.196153
v 0.000000 16.000000 -6.000001
v -4.601544 -2.000000 -0.316571
v -3.827589 -2.000000 2.571877
v -1.105356 -3.000000 1.900836
v -1.909312 -3.000000 -1.099576
v -6.000000 0.000000 0.000000
v -5.196152 0.000000 3.000000
v -3.827589 -2.000000 2.571877
v -4.601544 -2.000000 -0.316571
v -2.555231 -2.000000 -3.830342
v -1.909312 -3.000000 -1.099576
v 1.089840 -3.000000 -1.903195
v 0.290794 -2.000000 -4.592948
v -2.999999 -0.000000 -5.196152
v -2.555231 -2.000000 -3.830342
v 0.290794 -2.000000 -4.592948
v 0.000000 -0.000000 -6.000000
v 0.000000 0.000000 6.000000
v 3.000000 0.000000 5.196152
v 2.502860 -2.000000 3.841129
v -0.253926 -2.000000 4.579804
v -0.253926 -2.000000 4.579804
v 2.502860 -2.000000 3.841129
v 1.893796 -3.000000 1.097217
v -1.105356 -3.000000 1.900836
v 4.564440 -2.000000 0.205896
v 6.000000 -0.000000 -0.000001
v 5.196152 -0.000000 -2.999999
v 3.849157 -2.000000 -2.463577
v 1.893796 -3.000000 1.097217
v 4.564440 -2.000000 0.205896
v 3.849157 -2.000000 -2.463577
v 1.089840 -3.000000 -1.903195
v -4.143388 -2.000000 -2.390879
v -5.196152 -0.000000 -3.000001
v -4.601544 -2.000000 -0.316571
v -6.000000 0.000000 0.000000
v -2.555231 -2.000000 -3.830342
v -5.196152 -0.000000 -3.000001
v -4.143388 -2.000000 -2.390879
v -2.999999 -0.000000 -5.196152
v 2.502860 -2.000000 3.841129
v 3.000000 0.000000 5.196152
v 4.135636 -2.000000 2.389702
v 5.196152 0.000000 3.000000
v 3.849157 -2.000000 -2.463577
v 5.196152 -0.000000 -2.999999
v 2.385900 -2.000000 -4.140416
v 3.000000 -0.000000 -5.196152
v -3.827589 -2.000000 2.571877
v -5.196152 0.000000 3.000000
v -2.393671 -2.000000 4.139220
v -2.999999 0.000000 5.196152
v -2.999999 0.000000 5.196152
v -0.253926 -2.000000 4.579804
v -2.393671 -2.000000 4.139220
v 0.000000 0.000000 6.000000
v 5.196152 0.000000 3.000000
v 6.000000 -0.000000 -0.000001
v 4.564440 -2.000000 0.205896
v 4.135636 -2.000000 2.389702
v 3.000000 -0.000000 -5.196152
v 0.000000 -0.000000 -6.000000
v 0.290794 -2.000000 -4.592948
v 2.385900 -2.000000 -4.140416
v -5.196152 16.000000 2.999999
v -6.000000 16.000000 -0.000001
v -3.672414 19.000000 0.000002
v -3.180405 19.000000 1.836207
v 0.000013 19.000000 3.672424
v 0.000000 16.000000 5.999999
v -1.836204 19.000000 3.180414
v -2.999999 16.000000 5.196150
v 1.836225 19.000000 3.180413
v 3.000000 16.000000 5.196150
v 0.000013 19.000000 3.672424
v 0.000000 16.000000 5.999999
v 6.000000 16.000000 -0.000002
v 5.196152 16.000000 2.999999
v 3.180432 19.000000 1.836213
v 3.672435 19.000000 -0.000003
v 6.000000 16.000000 -0.000002
v 3.672435 19.000000 -0.000003
v 3.180426 19.000000 -1.836207
v 5.196152 16.000000 -3.000000
v 3.000000 16.000000 -5.196153
v 0.000015 19.000000 -3.672426
v 0.000000 16.000000 -6.000001
v 1.836226 19.000000 -3.180415
v -2.999999 16.000000 -5.196153
v 0.000000 16.000000 -6.000001
v -1.836196 19.000000 -3.180416
v 0.000015 19.000000 -3.672426
v -3.672414 19.000000 0.000002
v -6.000000 16.000000 -0.000001
v -5.196152 16.000000 -3.000002
v -3.180404 19.000000 -1.836215
v 0.000003 16.000000 5.735143
v 2.867573 0.000000 4.966784
v 2.867573 16.000000 4.966783
v 0.000003 0.000000 5.735144
v 2.867573 16.000000 4.966783
v 4.966784 0.000000 2.867572
v 4.966784 16.000000 2.867571
v 2.867573 0.000000 4.966784
v 4.966784 16.000000 2.867571
v 5.735144 -0.000000 -0.000003
v 5.735144 16.000000 -0.000004
v 4.966784 0.000000 2.867572
v 5.735144 16.000000 -0.000004
v 4.966784 -0.000000 -2.867573
v 4.966784 16.000000 -2.867574
v 5.735144 -0.000000 -0.000003
v 4.966784 16.000000 -2.867574
v 2.867572 -0.000000 -4.966788
v 2.867572 16.000000 -4.966789
v 4.966784 -0.000000 -2.867573
v 2.867572 16.000000 -4.966789
v -0.000003 -0.000000 -5.735144
v -0.000003 16.000000 -5.735146
v 2.867572 -0.000000 -4.966788
v 0.000003 16.000000 5.735143
v 0.000000 16.000000 5.999999
v 0.000003 0.000000 5.735144
v 0.000000 0.000000 6.000000
v -2.999999 0.000000 5.196152
v 0.000003 0.000000 5.735144
v 0.000000 0.000000 6.000000
v 0.000000 0.000000 0.000000
v 2.867573 0.000000 4.966784
v -5.196152 0.000000 3.000000
v 4.966784 0.000000 2.867572
v -6.000000 0.000000 0.000000
v 5.735144 -0.000000 -0.000003
v -5.196152 -0.000000 -3.000001
v 4.966784 -0.000000 -2.867573
v 2.867572 -0.000000 -4.966788
v -2.999999 -0.000000 -5.196152
v -0.000003 -0.000000 -5.735144
v 0.000000 -0.000000 -6.000000
v 1.836225 19.000000 3.180413
v 3.180432 19.000000 1.836213
v 5.196152 16.000000 2.999999
v 3.000000 16.000000 5.196150
v 5.196152 16.000000 -3.000000
v 1.836226 19.000000 -3.180415
v 3.000000 16.000000 -5.196153
v 3.180426 19.000000 -1.836207
v -2.999999 16.000000 5.196150
v -5.196152 16.000000 2.999999
v -3.180405 19.000000 1.836207
v -1.836204 19.000000 3.180414
v -5.196152 16.000000 -3.000002
v -2.999999 16.000000 -5.196153
v -3.180404 19.000000 -1.836215
v -1.836196 19.000000 -3.180416
v 0.000000 16.000000 -6.000001
v -0.000003 16.000000 -5.735146
v 0.000000 -0.000000 -6.000000
v -0.000003 -0.000000 -5.735144
v -1.105356 -3.000000 1.900836
v 1.893796 -3.000000 1.097217
v 1.089840 -3.000000 -1.903195
v -1.909312 -3.000000 -1.099576
vn -0.3677 -0.9264 -0.0812
vn -0.2532 -0.9262 -0.2793
vn -0.0762 -0.9260 0.3698
vn -0.2777 -0.9265 0.2541
vn 0.3710 -0.9258 0.0728
vn 0.2506 -0.9261 0.2819
vn 0.2850 -0.9257 -0.2487
vn 0.0795 -0.9264 -0.3680
vn -0.4744 0.8711 0.1271
vn -0.3473 0.8711 0.3473
vn -0.1271 0.8711 0.4744
vn 0.1271 0.8711 0.4744
vn 0.3473 0.8711 0.3473
vn 0.4744 0.8711 0.1271
vn 0.4744 0.8711 -0.1271
vn 0.3473 0.8711 -0.3473
vn 0.1271 0.8711 -0.4744
vn -0.1271 0.8711 -0.4744
vn -0.3473 0.8711 -0.3473
vn -0.4744 0.8711 -0.1271
vn -0.0879 -0.9406 -0.3280
vn -0.2401 -0.9406 -0.2401
vn -0.3280 -0.9406 -0.0879
vn -0.3280 -0.9406 0.0879
vn -0.2401 -0.9406 0.2401
vn -0.0879 -0.9406 0.3280
vn 0.0591 -0.9426 0.3287
vn 0.2307 -0.9453 0.2307
vn 0.3151 -0.9453 0.0844
vn 0.3151 -0.9453 -0.0844
vn 0.2307 -0.9453 -0.2307
vn 0.0591 -0.9426 -0.3287
vn -0.0000 -1.0000 -0.0000
vn 0.2588 -0.0000 0.9659
vn 0.7071 -0.0000 0.7071
vn 0.9659 -0.0000 0.2588
vn 0.9659 -0.0000 -0.2588
vn 0.7071 -0.0000 -0.7071
vn 0.2588 -0.0000 -0.9659
vn -0.3246 -0.9419 0.0870
vn -0.7852 -0.5824 0.2104
vn -0.0869 -0.9419 -0.3244
vn -0.2103 -0.5828 -0.7849
vn 0.2102 -0.5836 0.7843
vn 0.0868 -0.9420 0.3240
vn 0.7839 -0.5843 -0.2100
vn 0.3238 -0.9421 -0.0868
vn -0.8305 -0.5188 -0.2026
vn -0.8448 -0.5015 -0.1866
vn -0.8156 -0.5357 -0.2185
vn -0.5811 -0.5012 -0.6412
vn -0.5886 -0.5204 -0.6186
vn -0.5955 -0.5391 -0.5955
vn 0.5806 -0.5334 0.6151
vn 0.5807 -0.5334 0.6151
vn 0.5516 -0.5575 0.6205
vn 0.6088 -0.5086 0.6088
vn 0.6160 -0.5369 -0.5764
vn 0.6160 -0.5370 -0.5763
vn 0.6220 -0.5645 -0.5427
vn 0.6089 -0.5084 -0.6089
vn -0.6144 -0.5260 0.5881
vn -0.6144 -0.5259 0.5881
vn -0.6188 -0.5446 0.5661
vn -0.6095 -0.5069 0.6095
vn -0.1745 -0.5009 0.8477
vn -0.1957 -0.5242 0.8288
vn -0.1958 -0.5242 0.8288
vn -0.2167 -0.5468 0.8087
vn 0.8272 -0.5284 0.1912
vn 0.8037 -0.5547 0.2153
vn 0.8491 -0.5011 0.1667
vn 0.2003 -0.5215 -0.8294
vn 0.2178 -0.5402 -0.8129
vn 0.2003 -0.5214 -0.8295
vn 0.1826 -0.5022 -0.8452
vn -0.7730 0.5997 0.2071
vn -0.2071 0.5997 0.7730
vn 0.2071 0.5997 0.7730
vn 0.7730 0.5997 0.2071
vn 0.7730 0.5997 -0.2071
vn 0.2071 0.5997 -0.7730
vn -0.2071 0.5997 -0.7730
vn -0.7730 0.5997 -0.2071
vn -0.2588 -0.0000 -0.9659
vn -0.7071 -0.0000 -0.7071
vn -0.9659 -0.0000 -0.2588
vn -0.9659 -0.0000 0.2588
vn -0.7071 -0.0000 0.7071
vn -0.2588 -0.0000 0.9659
vn -1.0000 -0.0000 -0.0000
vn -0.0000 1.0000 -0.0000
vn 0.5658 0.5997 0.5658
vn 0.5658 0.5997 -0.5658
vn -0.5658 0.5997 0.5658
vn -0.5658 0.5997 -0.5658
vt 0.701060 0.453500
vt 0.663415 0.443209
vt 0.701177 0.418897
vt 0.683418 0.483597
vt 0.637095 0.397462
vt 0.611625 0.360474
vt 0.647181 0.359031
vt 0.676472 0.376938
vt 0.591367 0.423770
vt 0.554252 0.449226
vt 0.553241 0.413385
vt 0.571890 0.384010
vt 0.606726 0.507434
vt 0.577358 0.487245
vt 0.617686 0.469517
vt 0.641577 0.507698
vt 0.391843 0.439019
vt 0.336363 0.454674
vt 0.336553 0.424854
vt 0.351179 0.399135
vt 0.376582 0.384074
vt 0.406099 0.383755
vt 0.431624 0.398391
vt 0.445713 0.423818
vt 0.446994 0.452858
vt 0.432885 0.478678
vt 0.407555 0.493836
vt 0.378026 0.494276
vt 0.352114 0.479997
vt 0.100613 0.745560
vt 0.003456 0.719918
vt 0.029216 0.674852
vt 0.003624 0.771828
vt 0.029675 0.816727
vt 0.074658 0.842633
vt 0.126568 0.842633
vt 0.171551 0.816727
vt 0.201800 0.772806
vt 0.201828 0.718418
vt 0.174591 0.671341
vt 0.127427 0.644257
vt 0.073039 0.644461
vt 0.025944 0.671571
vt 0.174842 0.819989
vt 0.000038 0.321088
vt 0.271895 0.321087
vt 0.271895 0.373859
vt 0.000038 0.373859
vt 0.271895 0.426630
vt 0.000038 0.426630
vt 0.271895 0.479401
vt 0.000038 0.479401
vt 0.271895 0.532173
vt 0.000038 0.532173
vt 0.271895 0.584944
vt 0.000038 0.584944
vt 0.271895 0.637715
vt 0.000038 0.637715
vt 0.710255 0.347218
vt 0.743758 0.400473
vt 0.710797 0.519903
vt 0.656839 0.548449
vt 0.542124 0.351468
vt 0.594006 0.319036
vt 0.542975 0.517079
vt 0.513528 0.463895
vt 0.743758 0.465143
vt 0.513112 0.404389
vt 0.596514 0.547926
vt 0.655805 0.317694
vt 0.274433 0.472150
vt 0.272713 0.410833
vt 0.355082 0.320860
vt 0.301659 0.355312
vt 0.419425 0.317694
vt 0.477416 0.347945
vt 0.512401 0.404999
vt 0.512401 0.471925
vt 0.422271 0.558964
vt 0.478778 0.528028
vt 0.358719 0.557521
vt 0.305020 0.525320
vt 0.293189 0.258236
vt 0.564832 0.258240
vt 0.293189 0.308638
vt 0.564832 0.308642
vt 0.293190 0.207834
vt 0.564833 0.207838
vt 0.293190 0.157432
vt 0.564834 0.157436
vt 0.293191 0.107029
vt 0.564834 0.107033
vt 0.293192 0.056627
vt 0.564835 0.056631
vt 0.293193 0.006225
vt 0.564836 0.006229
vt 0.293193 0.313380
vt 0.564836 0.313383
vt 0.915029 0.344080
vt 0.911847 0.347262
vt 0.869327 0.317694
vt 0.842942 0.416167
vt 0.937068 0.390946
vt 0.816556 0.317694
vt 0.937068 0.441388
vt 0.770855 0.344080
vt 0.911847 0.485072
vt 0.744469 0.389781
vt 0.868163 0.510292
vt 0.817721 0.510292
vt 0.744469 0.442552
vt 0.774037 0.485071
vt 0.770855 0.488254
vt 0.564832 0.001487
vt 0.293189 0.001484
s 1
f 3/1/1 2/2/1 1/3/1
f 6/4/2 5/2/2 4/1/2
f 9/5/3 8/6/3 7/7/3
f 12/8/4 11/5/4 10/7/4
f 15/9/5 14/10/5 13/11/5
f 18/12/6 17/9/6 16/11/6
f 21/13/7 20/14/7 19/15/7
f 24/16/8 23/13/8 22/15/8
f 27/17/9 26/18/9 25/19/9
f 30/17/10 29/19/10 28/20/10
f 33/17/11 32/20/11 31/21/11
f 36/17/12 35/21/12 34/22/12
f 39/23/13 38/17/13 37/22/13
f 42/24/14 41/17/14 40/23/14
f 45/25/15 44/17/15 43/24/15
f 48/26/16 47/17/16 46/25/16
f 51/17/17 50/26/17 49/27/17
f 54/17/18 53/27/18 52/28/18
f 57/28/19 56/29/19 55/17/19
f 60/17/20 59/29/20 58/18/20
f 63/30/21 62/31/21 61/32/21
f 66/33/22 65/31/22 64/30/22
f 69/34/23 68/33/23 67/30/23
f 72/35/24 71/34/24 70/30/24
f 75/36/25 74/35/25 73/30/25
f 78/37/26 77/36/26 76/30/26
f 81/38/27 80/37/27 79/30/27
f 84/39/28 83/38/28 82/30/28
f 87/40/29 86/39/29 85/30/29
f 90/41/30 89/40/30 88/30/30
f 93/42/31 92/41/31 91/30/31
f 96/32/32 95/42/32 94/30/32
f 99/42/33 98/32/33 97/43/33
f 102/44/33 101/37/33 100/38/33
f 105/45/34 104/46/34 103/47/34
f 106/48/34 105/45/34 103/47/34
f 109/48/35 108/47/35 107/49/35
f 110/50/35 109/48/35 107/49/35
f 113/50/36 112/49/36 111/51/36
f 114/52/36 113/50/36 111/51/36
f 117/52/37 116/51/37 115/53/37
f 118/54/37 117/52/37 115/53/37
f 121/54/38 120/53/38 119/55/38
f 122/56/38 121/54/38 119/55/38
f 125/56/39 124/55/39 123/57/39
f 126/58/39 125/56/39 123/57/39
f 129/5/40 128/8/40 127/3/40
f 130/2/40 129/5/40 127/3/40
f 133/8/41 132/59/41 131/60/41
f 134/3/41 133/8/41 131/60/41
f 137/15/42 136/2/42 135/4/42
f 138/16/42 137/15/42 135/4/42
f 141/16/43 140/4/43 139/61/43
f 142/62/43 141/16/43 139/61/43
f 145/12/44 144/63/44 143/64/44
f 145/12/44 143/64/44 146/6/44
f 149/9/45 148/12/45 147/6/45
f 149/9/45 147/6/45 150/5/45
f 153/65/46 152/66/46 151/10/46
f 153/65/46 151/10/46 154/14/46
f 157/14/47 156/10/47 155/9/47
f 157/14/47 155/9/47 158/15/47
f 161/3/48 160/67/48 159/1/49
f 162/60/50 160/67/48 161/3/48
f 165/1/51 164/67/52 163/4/52
f 163/4/52 164/67/52 166/61/53
f 169/11/54 168/63/55 167/12/56
f 170/68/57 168/63/55 169/11/54
f 173/13/58 172/65/59 171/14/60
f 174/69/61 172/65/59 173/13/58
f 177/7/62 176/59/63 175/8/64
f 178/70/65 176/59/63 177/7/62
f 181/7/66 180/6/67 179/70/68
f 180/6/67 182/64/69 179/70/68
f 185/10/70 184/66/71 183/68/70
f 186/11/72 185/10/70 183/68/70
f 189/16/73 188/62/74 187/69/75
f 190/13/76 189/16/73 187/69/75
f 193/18/77 192/71/77 191/72/77
f 193/18/77 191/72/77 194/19/77
f 197/20/78 196/73/78 195/21/78
f 198/74/78 196/73/78 197/20/78
f 201/21/79 200/75/79 199/22/79
f 202/73/79 200/75/79 201/21/79
f 205/23/80 204/76/80 203/77/80
f 205/23/80 203/77/80 206/24/80
f 209/25/81 208/24/81 207/77/81
f 210/78/81 209/25/81 207/77/81
f 213/79/82 212/27/82 211/80/82
f 212/27/82 214/26/82 211/80/82
f 217/28/83 216/79/83 215/81/83
f 218/27/83 216/79/83 217/28/83
f 221/82/84 220/71/84 219/18/84
f 222/29/84 221/82/84 219/18/84
f 225/83/85 224/84/85 223/85/85
f 223/85/85 224/84/85 226/86/85
f 229/87/86 228/88/86 227/83/86
f 227/83/86 228/88/86 230/84/86
f 233/89/87 232/90/87 231/87/87
f 231/87/87 232/90/87 234/88/87
f 237/91/88 236/92/88 235/89/88
f 235/89/88 236/92/88 238/90/88
f 241/93/89 240/94/89 239/91/89
f 239/91/89 240/94/89 242/92/89
f 245/95/90 244/96/90 243/93/90
f 243/93/90 244/96/90 246/94/90
f 249/86/91 248/97/91 247/85/91
f 250/98/91 248/97/91 249/86/91
f 253/99/92 252/100/92 251/101/92
f 251/101/92 252/100/92 254/102/92
f 252/100/92 255/103/92 254/102/92
f 256/104/92 251/101/92 254/102/92
f 255/103/92 257/105/92 254/102/92
f 258/106/92 256/104/92 254/102/92
f 257/105/92 259/107/92 254/102/92
f 260/108/92 258/106/92 254/102/92
f 259/107/92 261/109/92 254/102/92
f 261/109/92 262/110/92 254/102/92
f 263/111/92 260/108/92 254/102/92
f 262/110/92 264/112/92 254/102/92
f 254/102/92 264/112/92 263/111/92
f 263/111/92 264/112/92 265/113/92
f 268/76/93 267/23/93 266/22/93
f 269/75/93 268/76/93 266/22/93
f 272/80/94 271/26/94 270/78/94
f 270/78/94 271/26/94 273/25/94
f 276/19/95 275/72/95 274/74/95
f 276/19/95 274/74/95 277/20/95
f 280/29/96 279/81/96 278/82/96
f 281/28/96 279/81/96 280/29/96
f 284/114/91 283/95/91 282/115/91
f 285/96/91 283/95/91 284/114/91
f 288/15/33 287/9/33 286/5/33
f 288/15/33 286/5/33 289/2/33
f 287/9/33 286/5/33 289/2/33
f 287/9/33 289/2/33 288/15/33
