g StreetCleanerPod_Door
v -0.007499998 0 -0.01299038
v 0 0 -0.015
v 0 0.04 -0.015
v -0.007499998 0.04 -0.01299038
v -0.01299038 0 0.0075
v -0.015 0 0
v -0.015 0.04 0
v -0.01299038 0.04 0.0075
v -0.0075 0 0.01299038
v -0.01299038 0 0.0075
v -0.01299038 0.04 0.0075
v -0.0075 0.04 0.01299038
v 0 0 0.015
v -0.0075 0 0.01299038
v -0.0075 0.04 0.01299038
v 0 0.04 0.015
v -0.01299038 0 -0.0075
v -0.007499998 0 -0.01299038
v -0.007499998 0.04 -0.01299038
v -0.01299038 0.04 -0.0075
v -0.015 0 0
v -0.01299038 0 -0.0075
v -0.01299038 0.04 -0.0075
v -0.015 0.04 0
vt 0.2718969 0.05716616
vt 0.2718969 0.004394863
vt 4.05389E-05 0.004394952
vt 4.05389E-05 0.05716637
vt 0.2718968 0.2154801
vt 0.2718968 0.1627089
vt 4.05091E-05 0.1627089
vt 4.05091E-05 0.2154802
vt 0.2718968 0.2682514
vt 0.2718968 0.2154801
vt 4.05091E-05 0.2154802
vt 4.05091E-05 0.2682515
vt 0.2718969 0.3210228
vt 0.2718968 0.2682514
vt 4.05091E-05 0.2682515
vt 4.05091E-05 0.3210228
vt 0.2718969 0.1099375
vt 0.2718969 0.05716616
vt 4.05389E-05 0.05716637
vt 4.05389E-05 0.1099375
vt 0.2718968 0.1627089
vt 0.2718969 0.1099375
vt 4.05389E-05 0.1099375
vt 4.05091E-05 0.1627089
vn -0.2588193 0 -0.9659257
vn -0.2588193 0 -0.9659257
vn -0.2588193 0 -0.9659257
vn -0.258819 0 -0.9659258
vn -0.9659258 0 0.2588191
vn -0.9659258 0 0.2588191
vn -0.9659258 0 0.2588191
vn -0.9659258 0 0.2588191
vn -0.7071066 0 0.7071068
vn -0.7071066 0 0.7071068
vn -0.7071066 0 0.7071068
vn -0.7071068 0 0.7071066
vn -0.258819 0 0.9659258
vn -0.258819 0 0.9659258
vn -0.258819 0 0.9659258
vn -0.2588192 0 0.9659257
vn -0.7071068 0 -0.7071068
vn -0.7071068 0 -0.7071068
vn -0.7071068 0 -0.7071068
vn -0.7071066 0 -0.7071069
vn -0.9659258 0 -0.2588191
vn -0.9659258 0 -0.2588191
vn -0.9659258 0 -0.2588191
vn -0.9659258 0 -0.2588191
g StreetCleanerPod_Door_0
f 3/3/3 2/2/2 1/1/1
f 4/4/4 3/3/3 1/1/1
f 7/7/7 6/6/6 5/5/5
f 8/8/8 7/7/7 5/5/5
f 11/11/11 10/10/10 9/9/9
f 12/12/12 11/11/11 9/9/9
f 15/15/15 14/14/14 13/13/13
f 16/16/16 15/15/15 13/13/13
f 19/19/19 18/18/18 17/17/17
f 20/20/20 19/19/19 17/17/17
f 23/23/23 22/22/22 21/21/21
f 24/24/24 23/23/23 21/21/21
