# Blender 4.2.9 LTS
# www.blender.org
mtllib rune_wrath.mtl
o wrathrune
v -0.292202 0.354219 -0.000000
v -0.381748 0.348328 -0.000000
v -0.450085 0.330654 -0.000000
v -0.516066 0.314160 -0.000000
v -0.560839 0.295307 -0.000000
v -0.640959 0.259960 -0.000000
v -0.737573 0.189266 -0.000000
v -0.868357 0.059661 -0.000000
v -0.910773 -0.047557 0.000000
v -0.914308 -0.137103 0.000000
v -0.858931 -0.097043 0.000000
v -0.805911 -0.085262 0.000000
v -0.665701 -0.066409 0.000000
v -0.531382 -0.066409 0.000000
v -0.398243 -0.082905 0.000000
v -0.316945 -0.107648 0.000000
v -0.319302 -0.139460 0.000000
v -0.523135 -0.385709 0.000000
v -0.612681 -0.386888 0.000000
v -0.579690 -0.444622 0.000000
v -0.498393 -0.560088 0.000000
v -0.412382 -0.663772 0.000000
v -0.353470 -0.727397 0.000000
v -0.273351 -0.820477 0.000000
v -0.289208 -0.780171 0.000000
v -0.295753 -0.705714 0.000000
v -0.316208 -0.597710 0.000000
v -0.313754 -0.478250 0.000000
v -0.294935 -0.417703 0.000000
v -0.230295 -0.272878 0.000000
v -0.197567 -0.217239 0.000000
v -0.139474 -0.123963 0.000000
v -0.100199 -0.067506 0.000000
v -0.065835 -0.020867 0.000000
v -0.058471 0.015952 -0.000000
v -0.231248 0.028959 -0.000000
v -0.410233 0.045531 -0.000000
v -0.612893 0.063524 -0.000000
v -0.629939 0.082938 -0.000000
v -0.575486 0.159172 -0.000000
v -0.530504 0.203682 -0.000000
v -0.467054 0.260029 -0.000000
v -0.415915 0.296962 -0.000000
v -0.361936 0.325845 -0.000000
v 0.292202 0.354220 -0.000000
v 0.381748 0.348328 -0.000000
v 0.450085 0.330655 -0.000000
v 0.516066 0.314160 -0.000000
v 0.560839 0.295307 -0.000000
v 0.640959 0.259960 -0.000000
v 0.737574 0.189267 -0.000000
v 0.868357 0.059661 -0.000000
v 0.910774 -0.047557 0.000000
v 0.914308 -0.137103 0.000000
v 0.858932 -0.097042 0.000000
v 0.805911 -0.085261 0.000000
v 0.665701 -0.066409 0.000000
v 0.531383 -0.066409 0.000000
v 0.398244 -0.082904 0.000000
v 0.316946 -0.107647 0.000000
v 0.319302 -0.139459 0.000000
v 0.523136 -0.385709 0.000000
v 0.612681 -0.386887 0.000000
v 0.579691 -0.444621 0.000000
v 0.498393 -0.560087 0.000000
v 0.412382 -0.663772 0.000000
v 0.353470 -0.727397 0.000000
v 0.273351 -0.820476 0.000000
v 0.289208 -0.780171 0.000000
v 0.295754 -0.705713 0.000000
v 0.316209 -0.597709 0.000000
v 0.313754 -0.478249 0.000000
v 0.294935 -0.417702 0.000000
v 0.230296 -0.272878 0.000000
v 0.197567 -0.217239 0.000000
v 0.139474 -0.123962 0.000000
v 0.100200 -0.067505 0.000000
v 0.065835 -0.020866 0.000000
v 0.058471 0.015953 -0.000000
v 0.231249 0.028960 -0.000000
v 0.410233 0.045531 -0.000000
v 0.612894 0.063525 -0.000000
v 0.629940 0.082938 -0.000000
v 0.575487 0.159173 -0.000000
v 0.530504 0.203682 -0.000000
v 0.467054 0.260029 -0.000000
v 0.415916 0.296963 -0.000000
v 0.361936 0.325846 -0.000000
v -0.292202 0.354219 0.210114
v -0.381748 0.348328 0.210114
v -0.450085 0.330654 0.210114
v -0.516066 0.314160 0.210114
v -0.560839 0.295307 0.210114
v -0.640959 0.259960 0.210114
v -0.737573 0.189266 0.210114
v -0.868357 0.059661 0.210114
v -0.910773 -0.047557 0.210114
v -0.914308 -0.137103 0.210114
v -0.858931 -0.097043 0.210114
v -0.805911 -0.085262 0.210114
v -0.665701 -0.066409 0.210114
v -0.531382 -0.066409 0.210114
v -0.398243 -0.082905 0.210114
v -0.316945 -0.107648 0.210114
v -0.319302 -0.139460 0.210114
v -0.523135 -0.385709 0.210114
v -0.612681 -0.386888 0.210114
v -0.579690 -0.444622 0.210114
v -0.498393 -0.560088 0.210114
v -0.412382 -0.663772 0.210114
v -0.353470 -0.727397 0.210114
v -0.273351 -0.820477 0.210114
v -0.289208 -0.780171 0.210114
v -0.295753 -0.705714 0.210114
v -0.316208 -0.597710 0.210114
v -0.313754 -0.478250 0.210114
v -0.294935 -0.417703 0.210114
v -0.230295 -0.272878 0.210114
v -0.197567 -0.217239 0.210114
v -0.139474 -0.123963 0.210114
v -0.100199 -0.067506 0.210114
v -0.065835 -0.020867 0.210114
v -0.058471 0.015952 0.210114
v -0.231248 0.028959 0.210114
v -0.410233 0.045531 0.210114
v -0.612893 0.063524 0.210114
v -0.629939 0.082938 0.210114
v -0.575486 0.159172 0.210114
v -0.530504 0.203682 0.210114
v -0.467054 0.260029 0.210114
v -0.415915 0.296962 0.210114
v -0.361936 0.325845 0.210114
v 0.292202 0.354220 0.210113
v 0.381748 0.348328 0.210113
v 0.450085 0.330655 0.210113
v 0.516066 0.314160 0.210113
v 0.560839 0.295307 0.210113
v 0.640959 0.259960 0.210113
v 0.737574 0.189267 0.210113
v 0.868357 0.059661 0.210113
v 0.910774 -0.047557 0.210113
v 0.914308 -0.137103 0.210113
v 0.858932 -0.097042 0.210113
v 0.805911 -0.085261 0.210113
v 0.665701 -0.066409 0.210113
v 0.531383 -0.066409 0.210113
v 0.398244 -0.082904 0.210113
v 0.316946 -0.107647 0.210113
v 0.319302 -0.139459 0.210113
v 0.523136 -0.385709 0.210113
v 0.612681 -0.386887 0.210113
v 0.579691 -0.444621 0.210113
v 0.498393 -0.560087 0.210113
v 0.412382 -0.663772 0.210113
v 0.353470 -0.727397 0.210113
v 0.273351 -0.820476 0.210113
v 0.289208 -0.780171 0.210113
v 0.295754 -0.705713 0.210113
v 0.316209 -0.597709 0.210113
v 0.313754 -0.478249 0.210113
v 0.294935 -0.417702 0.210113
v 0.230296 -0.272878 0.210113
v 0.197567 -0.217239 0.210113
v 0.139474 -0.123962 0.210113
v 0.100200 -0.067505 0.210113
v 0.065835 -0.020866 0.210113
v 0.058471 0.015953 0.210113
v 0.231249 0.028960 0.210113
v 0.410233 0.045531 0.210113
v 0.612894 0.063525 0.210113
v 0.629940 0.082938 0.210113
v 0.575487 0.159173 0.210113
v 0.530504 0.203682 0.210113
v 0.467054 0.260029 0.210113
v 0.415916 0.296963 0.210113
v 0.361936 0.325846 0.210113
vn -0.0000 -0.0000 -1.0000
vn -0.0000 -0.0000 1.0000
vn 0.9825 -0.1861 -0.0000
vn 0.3769 -0.9263 -0.0000
vn -0.0132 0.9999 -0.0000
vn 0.9998 0.0205 -0.0000
vn -0.0657 -0.9978 -0.0000
vn -0.8682 -0.4961 -0.0000
vn 0.9549 0.2968 -0.0000
vn -0.2504 -0.9681 -0.0000
vn -0.8177 -0.5757 -0.0000
vn 0.9132 0.4076 -0.0000
vn -0.2425 -0.9701 -0.0000
vn -0.7697 -0.6385 -0.0000
vn 0.8619 0.5070 -0.0000
vn -0.3881 -0.9216 -0.0000
vn -0.7338 -0.6794 -0.0000
vn 0.8488 0.5287 -0.0000
vn -0.4036 -0.9149 -0.0000
vn -0.7579 -0.6524 -0.0000
vn 0.8209 0.5711 -0.0000
vn -0.5905 -0.8070 -0.0000
vn 0.9306 0.3661 -0.0000
vn 0.8051 0.5932 -0.0000
vn -0.7039 -0.7103 -0.0000
vn 0.9962 0.0876 -0.0000
vn 0.9806 0.1961 -0.0000
vn -0.9299 -0.3679 -0.0000
vn 0.9825 0.1861 -0.0000
vn 0.0751 -0.9972 -0.0000
vn -0.9992 -0.0394 -0.0000
vn 0.9998 -0.0205 -0.0000
vn -0.0656 0.9978 -0.0000
vn 0.0922 -0.9957 -0.0000
vn 0.5861 0.8102 -0.0000
vn 0.9549 -0.2968 -0.0000
vn -0.2504 0.9681 -0.0000
vn 0.0884 -0.9961 -0.0000
vn 0.2169 0.9762 -0.0000
vn 0.9132 -0.4076 -0.0000
vn -0.2425 0.9701 -0.0000
vn 0.7514 -0.6598 -0.0000
vn 0.1333 0.9911 -0.0000
vn 0.8619 -0.5070 -0.0000
vn -0.3881 0.9216 -0.0000
vn 0.8137 0.5812 -0.0000
vn -0.0000 1.0000 -0.0000
vn 0.8488 -0.5287 -0.0000
vn -0.4036 0.9149 -0.0000
vn 0.7034 0.7108 -0.0000
vn -0.1230 0.9924 -0.0000
vn 0.8209 -0.5711 -0.0000
vn -0.5905 0.8070 -0.0000
vn 0.6640 0.7477 -0.0000
vn -0.2912 0.9567 -0.0000
vn 0.8051 -0.5932 -0.0000
vn -0.7039 0.7103 -0.0000
vn 0.5855 0.8107 -0.0000
vn -0.9973 -0.0739 -0.0000
vn 0.9806 -0.1961 -0.0000
vn -0.9299 0.3679 -0.0000
vn 0.4718 0.8817 -0.0000
vn -0.7703 -0.6376 -0.0000
vn 0.0751 0.9972 -0.0000
vn -0.9992 0.0394 -0.0000
vn 0.3769 0.9263 -0.0000
vn -0.0132 -0.9999 -0.0000
vn 0.0922 0.9957 -0.0000
vn 0.5861 -0.8102 -0.0000
vn -0.8682 0.4961 -0.0000
vn 0.0884 0.9961 -0.0000
vn 0.2169 -0.9762 -0.0000
vn -0.8177 0.5757 -0.0000
vn 0.7515 0.6598 -0.0000
vn 0.1333 -0.9911 -0.0000
vn -0.7697 0.6385 -0.0000
vn 0.8137 -0.5812 -0.0000
vn -0.0000 -1.0000 -0.0000
vn -0.7338 0.6794 -0.0000
vn 0.7034 -0.7108 -0.0000
vn -0.1230 -0.9924 -0.0000
vn -0.7579 0.6524 -0.0000
vn 0.6640 -0.7477 -0.0000
vn -0.2912 -0.9567 -0.0000
vn 0.9306 -0.3661 -0.0000
vn 0.5855 -0.8107 -0.0000
vn -0.9973 0.0739 -0.0000
vn 0.9962 -0.0876 -0.0000
vn 0.4718 -0.8817 -0.0000
vn -0.7703 0.6376 -0.0000
vn 0.7514 0.6598 -0.0000
vt 0.278619 0.620296
vt 0.383750 0.473213
vt 0.255776 0.507475
vt 0.722793 0.378626
vt 0.617662 0.525709
vt 0.745636 0.491447
vt 0.513989 0.587054
vt 0.512538 0.625264
vt 0.465453 0.606033
vt 0.487423 0.411868
vt 0.488874 0.373658
vt 0.535959 0.392889
vt 0.951622 0.932856
vt 0.905860 0.871567
vt 0.614407 0.527107
vt 0.559882 0.562603
vt 0.039661 0.423193
vt 0.090978 0.362200
vt 0.841070 0.821020
vt 0.440816 0.412877
vt 0.387005 0.471815
vt 0.027693 0.375287
vt 0.798284 0.807468
vt 0.012401 0.268955
vt 0.684835 0.788541
vt 0.534975 0.335544
vt 0.006051 0.164532
vt 0.636781 0.786710
vt 0.570309 0.313040
vt 0.005621 0.096239
vt 0.554401 0.785826
vt 0.634417 0.273455
vt 0.001553 0.000510
vt 0.502200 0.788109
vt 0.726610 0.237985
vt 0.013979 0.029014
vt 0.458005 0.791327
vt 0.869421 0.204831
vt 0.049790 0.066067
vt 0.434283 0.780294
vt 0.950327 0.222565
vt 0.095552 0.127355
vt 0.525167 0.655913
vt 0.999859 0.259295
vt 0.160342 0.177902
vt 0.560596 0.586045
vt 0.947260 0.279826
vt 0.203128 0.191454
vt 0.911002 0.311103
vt 0.316577 0.210381
vt 0.466437 0.663379
vt 0.722148 0.358426
vt 0.821642 0.399160
vt 0.364631 0.212212
vt 0.431103 0.685882
vt 0.650859 0.362492
vt 0.447011 0.213097
vt 0.366995 0.725467
vt 0.601779 0.373938
vt 0.679039 0.590106
vt 0.499212 0.210814
vt 0.274802 0.760937
vt 0.646165 0.656780
vt 0.543407 0.207595
vt 0.131991 0.794091
vt 0.664391 0.669077
vt 0.567129 0.218628
vt 0.051085 0.776357
vt 0.441530 0.436319
vt 0.910434 0.636722
vt 0.476245 0.343009
vt 0.001553 0.739628
vt 0.961751 0.575729
vt 0.054152 0.719096
vt 0.973719 0.623635
vt 0.090410 0.687820
vt 0.989011 0.729967
vt 0.279264 0.640496
vt 0.179770 0.599762
vt 0.995361 0.834390
vt 0.350553 0.636431
vt 0.995791 0.902683
vt 0.399633 0.624984
vt 0.322373 0.408817
vt 0.999859 0.998412
vt 0.355247 0.342143
vt 0.987433 0.969908
vt 0.337021 0.329846
s 0
usemtl sinrunes2
f 38/1/1 37/2/1 14/3/1
f 82/4/2 81/5/2 58/6/2
f 131/7/2 91/8/2 130/9/2
f 175/10/1 135/11/1 174/12/1
f 70/13/3 159/14/3 158/13/3
f 1/15/4 132/16/4 44/16/4
f 19/17/5 106/18/5 18/18/5
f 72/19/6 159/14/6 71/14/6
f 46/20/7 133/21/7 45/21/7
f 20/22/8 107/17/8 19/17/8
f 73/23/9 160/19/9 72/19/9
f 47/11/10 134/20/10 46/20/10
f 21/24/11 108/22/11 20/22/11
f 73/23/12 162/25/12 161/23/12
f 48/26/13 135/11/13 47/11/13
f 22/27/14 109/24/14 21/24/14
f 75/28/15 162/25/15 74/25/15
f 49/29/16 136/26/16 48/26/16
f 23/30/17 110/27/17 22/27/17
f 75/28/18 164/31/18 163/28/18
f 50/32/19 137/29/19 49/29/19
f 24/33/20 111/30/20 23/30/20
f 77/34/21 164/31/21 76/31/21
f 51/35/22 138/32/22 50/32/22
f 25/36/23 112/33/23 24/33/23
f 77/34/24 166/37/24 165/34/24
f 52/38/25 139/35/25 51/35/25
f 26/39/26 113/36/26 25/36/26
f 79/40/27 166/37/27 78/37/27
f 53/41/28 140/38/28 52/38/28
f 27/42/29 114/39/29 26/39/29
f 80/43/30 167/40/30 79/40/30
f 53/41/31 142/44/31 141/41/31
f 28/45/32 115/42/32 27/42/32
f 2/46/33 89/15/33 1/15/33
f 81/5/34 168/43/34 80/43/34
f 55/47/35 142/44/35 54/44/35
f 29/48/36 116/45/36 28/45/36
f 3/8/37 90/46/37 2/46/37
f 82/4/38 169/5/38 81/5/38
f 55/47/39 144/49/39 143/47/39
f 30/50/40 117/48/40 29/48/40
f 4/51/41 91/8/41 3/8/41
f 83/52/42 170/4/42 82/4/42
f 57/53/43 144/49/43 56/49/43
f 31/54/44 118/50/44 30/50/44
f 5/55/45 92/51/45 4/51/45
f 84/56/46 171/52/46 83/52/46
f 57/53/47 146/6/47 145/53/47
f 32/57/48 119/54/48 31/54/48
f 6/58/49 93/55/49 5/55/49
f 84/56/50 173/59/50 172/56/50
f 59/60/51 146/6/51 58/6/51
f 33/61/52 120/57/52 32/57/52
f 6/58/53 95/62/53 94/58/53
f 86/12/54 173/59/54 85/59/54
f 60/63/55 147/60/55 59/60/55
f 34/64/56 121/61/56 33/61/56
f 7/62/57 96/65/57 95/62/57
f 86/12/58 175/10/58 174/12/58
f 60/63/59 149/66/59 148/63/59
f 35/67/60 122/64/60 34/64/60
f 8/65/61 97/68/61 96/65/61
f 88/69/62 175/10/62 87/10/62
f 62/70/63 149/66/63 61/66/63
f 36/71/64 123/67/64 35/67/64
f 9/68/65 98/72/65 97/68/65
f 45/21/66 176/69/66 88/69/66
f 63/73/67 150/70/67 62/70/67
f 37/2/68 124/71/68 36/71/68
f 11/74/69 98/72/69 10/72/69
f 64/75/70 151/73/70 63/73/70
f 38/1/71 125/2/71 37/2/71
f 12/76/72 99/74/72 11/74/72
f 65/77/73 152/75/73 64/75/73
f 39/78/74 126/1/74 38/1/74
f 13/79/75 100/76/75 12/76/75
f 66/80/76 153/77/76 65/77/76
f 40/81/77 127/78/77 39/78/77
f 14/3/78 101/79/78 13/79/78
f 67/82/79 154/80/79 66/80/79
f 41/83/80 128/81/80 40/81/80
f 15/84/81 102/3/81 14/3/81
f 68/85/82 155/82/82 67/82/82
f 42/9/83 129/83/83 41/83/83
f 16/86/84 103/84/84 15/84/84
f 69/87/85 156/85/85 68/85/85
f 43/7/86 130/9/86 42/9/86
f 16/86/87 105/88/87 104/86/87
f 70/13/88 157/87/88 69/87/88
f 44/16/89 131/7/89 43/7/89
f 18/18/90 105/88/90 17/88/90
f 11/74/1 10/72/1 9/68/1
f 9/68/1 8/65/1 12/76/1
f 8/65/1 7/62/1 39/78/1
f 9/68/1 12/76/1 11/74/1
f 7/62/1 6/58/1 40/81/1
f 6/58/1 5/55/1 41/83/1
f 5/55/1 4/51/1 42/9/1
f 4/51/1 3/8/1 42/9/1
f 3/8/1 2/46/1 43/7/1
f 2/46/1 1/15/1 44/16/1
f 2/46/1 44/16/1 43/7/1
f 6/58/1 41/83/1 40/81/1
f 12/76/1 8/65/1 13/79/1
f 13/79/1 8/65/1 39/78/1
f 5/55/1 42/9/1 41/83/1
f 3/8/1 43/7/1 42/9/1
f 14/3/1 13/79/1 38/1/1
f 38/1/1 13/79/1 39/78/1
f 20/22/1 19/17/1 18/18/1
f 22/27/1 21/24/1 27/42/1
f 21/24/1 20/22/1 18/18/1
f 25/36/1 24/33/1 23/30/1
f 23/30/1 22/27/1 26/39/1
f 21/24/1 18/18/1 28/45/1
f 21/24/1 28/45/1 27/42/1
f 28/45/1 18/18/1 29/48/1
f 26/39/1 25/36/1 23/30/1
f 27/42/1 26/39/1 22/27/1
f 18/18/1 17/88/1 30/50/1
f 17/88/1 16/86/1 32/57/1
f 29/48/1 18/18/1 30/50/1
f 30/50/1 17/88/1 31/54/1
f 31/54/1 17/88/1 32/57/1
f 32/57/1 16/86/1 36/71/1
f 16/86/1 15/84/1 37/2/1
f 36/71/1 16/86/1 37/2/1
f 35/67/1 34/64/1 36/71/1
f 34/64/1 33/61/1 36/71/1
f 33/61/1 32/57/1 36/71/1
f 7/62/1 40/81/1 39/78/1
f 15/84/1 14/3/1 37/2/1
f 55/47/2 54/44/2 53/41/2
f 53/41/2 52/38/2 56/49/2
f 52/38/2 51/35/2 83/52/2
f 53/41/2 56/49/2 55/47/2
f 51/35/2 50/32/2 84/56/2
f 50/32/2 49/29/2 85/59/2
f 49/29/2 48/26/2 86/12/2
f 48/26/2 47/11/2 86/12/2
f 47/11/2 46/20/2 87/10/2
f 46/20/2 45/21/2 88/69/2
f 46/20/2 88/69/2 87/10/2
f 50/32/2 85/59/2 84/56/2
f 56/49/2 52/38/2 57/53/2
f 57/53/2 52/38/2 83/52/2
f 49/29/2 86/12/2 85/59/2
f 47/11/2 87/10/2 86/12/2
f 58/6/2 57/53/2 82/4/2
f 82/4/2 57/53/2 83/52/2
f 64/75/2 63/73/2 62/70/2
f 66/80/2 65/77/2 71/14/2
f 65/77/2 64/75/2 62/70/2
f 69/87/2 68/85/2 67/82/2
f 67/82/2 66/80/2 70/13/2
f 65/77/2 62/70/2 72/19/2
f 65/77/2 72/19/2 71/14/2
f 72/19/2 62/70/2 73/23/2
f 70/13/2 69/87/2 67/82/2
f 71/14/2 70/13/2 66/80/2
f 62/70/2 61/66/2 74/25/2
f 61/66/2 60/63/2 76/31/2
f 73/23/2 62/70/2 74/25/2
f 74/25/2 61/66/2 75/28/2
f 75/28/2 61/66/2 76/31/2
f 76/31/2 60/63/2 80/43/2
f 60/63/2 59/60/2 81/5/2
f 80/43/2 60/63/2 81/5/2
f 79/40/2 78/37/2 80/43/2
f 78/37/2 77/34/2 80/43/2
f 77/34/2 76/31/2 80/43/2
f 51/35/2 84/56/2 83/52/2
f 59/60/2 58/6/2 81/5/2
f 106/18/2 107/17/2 108/22/2
f 108/22/2 109/24/2 106/18/2
f 109/24/2 110/27/2 115/42/2
f 106/18/2 109/24/2 116/45/2
f 111/30/2 112/33/2 113/36/2
f 110/27/2 111/30/2 114/39/2
f 116/45/2 109/24/2 115/42/2
f 106/18/2 116/45/2 117/48/2
f 111/30/2 113/36/2 114/39/2
f 114/39/2 115/42/2 110/27/2
f 105/88/2 106/18/2 118/50/2
f 104/86/2 105/88/2 120/57/2
f 106/18/2 117/48/2 118/50/2
f 105/88/2 118/50/2 119/54/2
f 105/88/2 119/54/2 120/57/2
f 103/84/2 104/86/2 125/2/2
f 104/86/2 120/57/2 124/71/2
f 121/61/2 122/64/2 124/71/2
f 122/64/2 123/67/2 124/71/2
f 104/86/2 124/71/2 125/2/2
f 120/57/2 121/61/2 124/71/2
f 102/3/2 103/84/2 125/2/2
f 125/2/2 126/1/2 102/3/2
f 102/3/2 126/1/2 101/79/2
f 126/1/2 127/78/2 101/79/2
f 100/76/2 101/79/2 96/65/2
f 101/79/2 127/78/2 96/65/2
f 97/68/2 98/72/2 99/74/2
f 99/74/2 100/76/2 97/68/2
f 100/76/2 96/65/2 97/68/2
f 127/78/2 128/81/2 95/62/2
f 95/62/2 128/81/2 94/58/2
f 95/62/2 96/65/2 127/78/2
f 92/51/2 93/55/2 130/9/2
f 93/55/2 94/58/2 129/83/2
f 89/15/2 90/46/2 132/16/2
f 90/46/2 91/8/2 131/7/2
f 132/16/2 90/46/2 131/7/2
f 91/8/2 92/51/2 130/9/2
f 93/55/2 129/83/2 130/9/2
f 128/81/2 129/83/2 94/58/2
f 150/70/1 151/73/1 152/75/1
f 152/75/1 153/77/1 150/70/1
f 153/77/1 154/80/1 159/14/1
f 150/70/1 153/77/1 160/19/1
f 155/82/1 156/85/1 157/87/1
f 154/80/1 155/82/1 158/13/1
f 160/19/1 153/77/1 159/14/1
f 150/70/1 160/19/1 161/23/1
f 155/82/1 157/87/1 158/13/1
f 158/13/1 159/14/1 154/80/1
f 149/66/1 150/70/1 162/25/1
f 148/63/1 149/66/1 164/31/1
f 150/70/1 161/23/1 162/25/1
f 149/66/1 162/25/1 163/28/1
f 149/66/1 163/28/1 164/31/1
f 147/60/1 148/63/1 169/5/1
f 148/63/1 164/31/1 168/43/1
f 165/34/1 166/37/1 168/43/1
f 166/37/1 167/40/1 168/43/1
f 148/63/1 168/43/1 169/5/1
f 164/31/1 165/34/1 168/43/1
f 146/6/1 147/60/1 169/5/1
f 169/5/1 170/4/1 146/6/1
f 146/6/1 170/4/1 145/53/1
f 170/4/1 171/52/1 145/53/1
f 144/49/1 145/53/1 140/38/1
f 145/53/1 171/52/1 140/38/1
f 141/41/1 142/44/1 143/47/1
f 143/47/1 144/49/1 141/41/1
f 144/49/1 140/38/1 141/41/1
f 171/52/1 172/56/1 139/35/1
f 139/35/1 172/56/1 138/32/1
f 139/35/1 140/38/1 171/52/1
f 136/26/1 137/29/1 174/12/1
f 137/29/1 138/32/1 173/59/1
f 133/21/1 134/20/1 176/69/1
f 134/20/1 135/11/1 175/10/1
f 176/69/1 134/20/1 175/10/1
f 135/11/1 136/26/1 174/12/1
f 137/29/1 173/59/1 174/12/1
f 172/56/1 173/59/1 138/32/1
f 70/13/3 71/14/3 159/14/3
f 1/15/4 89/15/4 132/16/4
f 19/17/5 107/17/5 106/18/5
f 72/19/6 160/19/6 159/14/6
f 46/20/7 134/20/7 133/21/7
f 20/22/8 108/22/8 107/17/8
f 73/23/9 161/23/9 160/19/9
f 47/11/10 135/11/10 134/20/10
f 21/24/11 109/24/11 108/22/11
f 73/23/12 74/25/12 162/25/12
f 48/26/13 136/26/13 135/11/13
f 22/27/14 110/27/14 109/24/14
f 75/28/15 163/28/15 162/25/15
f 49/29/16 137/29/16 136/26/16
f 23/30/17 111/30/17 110/27/17
f 75/28/18 76/31/18 164/31/18
f 50/32/19 138/32/19 137/29/19
f 24/33/20 112/33/20 111/30/20
f 77/34/21 165/34/21 164/31/21
f 51/35/22 139/35/22 138/32/22
f 25/36/23 113/36/23 112/33/23
f 77/34/24 78/37/24 166/37/24
f 52/38/25 140/38/25 139/35/25
f 26/39/26 114/39/26 113/36/26
f 79/40/27 167/40/27 166/37/27
f 53/41/28 141/41/28 140/38/28
f 27/42/29 115/42/29 114/39/29
f 80/43/30 168/43/30 167/40/30
f 53/41/31 54/44/31 142/44/31
f 28/45/32 116/45/32 115/42/32
f 2/46/33 90/46/33 89/15/33
f 81/5/34 169/5/34 168/43/34
f 55/47/35 143/47/35 142/44/35
f 29/48/36 117/48/36 116/45/36
f 3/8/37 91/8/37 90/46/37
f 82/4/38 170/4/38 169/5/38
f 55/47/39 56/49/39 144/49/39
f 30/50/40 118/50/40 117/48/40
f 4/51/41 92/51/41 91/8/41
f 83/52/42 171/52/42 170/4/42
f 57/53/43 145/53/43 144/49/43
f 31/54/44 119/54/44 118/50/44
f 5/55/45 93/55/45 92/51/45
f 84/56/46 172/56/46 171/52/46
f 57/53/47 58/6/47 146/6/47
f 32/57/48 120/57/48 119/54/48
f 6/58/49 94/58/49 93/55/49
f 84/56/50 85/59/50 173/59/50
f 59/60/51 147/60/51 146/6/51
f 33/61/52 121/61/52 120/57/52
f 6/58/53 7/62/53 95/62/53
f 86/12/54 174/12/54 173/59/54
f 60/63/55 148/63/55 147/60/55
f 34/64/56 122/64/56 121/61/56
f 7/62/57 8/65/57 96/65/57
f 86/12/58 87/10/58 175/10/58
f 60/63/59 61/66/59 149/66/59
f 35/67/60 123/67/60 122/64/60
f 8/65/61 9/68/61 97/68/61
f 88/69/62 176/69/62 175/10/62
f 62/70/63 150/70/63 149/66/63
f 36/71/64 124/71/64 123/67/64
f 9/68/65 10/72/65 98/72/65
f 45/21/66 133/21/66 176/69/66
f 63/73/67 151/73/67 150/70/67
f 37/2/68 125/2/68 124/71/68
f 11/74/69 99/74/69 98/72/69
f 64/75/70 152/75/70 151/73/70
f 38/1/71 126/1/71 125/2/71
f 12/76/72 100/76/72 99/74/72
f 65/77/73 153/77/73 152/75/73
f 39/78/91 127/78/91 126/1/91
f 13/79/75 101/79/75 100/76/75
f 66/80/76 154/80/76 153/77/76
f 40/81/77 128/81/77 127/78/77
f 14/3/78 102/3/78 101/79/78
f 67/82/79 155/82/79 154/80/79
f 41/83/80 129/83/80 128/81/80
f 15/84/81 103/84/81 102/3/81
f 68/85/82 156/85/82 155/82/82
f 42/9/83 130/9/83 129/83/83
f 16/86/84 104/86/84 103/84/84
f 69/87/85 157/87/85 156/85/85
f 43/7/86 131/7/86 130/9/86
f 16/86/87 17/88/87 105/88/87
f 70/13/88 158/13/88 157/87/88
f 44/16/89 132/16/89 131/7/89
f 18/18/90 106/18/90 105/88/90
