# Blender 4.2.9 LTS
# www.blender.org
mtllib rune_pride1_1.mtl
o sinrunes2.001
v -0.239817 1.101038 -0.000001
v -0.336323 0.984854 -0.000001
v -0.394982 0.866296 -0.000001
v -0.442953 0.711428 -0.000001
v -0.445480 0.475063 -0.000001
v -0.408800 0.281323 -0.000001
v -0.364912 0.185228 -0.000001
v -0.281855 0.064673 -0.000001
v -0.163556 -0.070225 -0.000001
v -0.109975 -0.116520 -0.000001
v -0.072521 -0.264944 -0.000001
v -0.009049 -0.616673 -0.000001
v 0.037257 -0.780600 -0.000001
v 0.075907 -0.086625 -0.000001
v 0.316805 0.073116 -0.000001
v 0.324643 0.377067 -0.000001
v 0.279521 0.323992 -0.000001
v 0.231441 0.254065 -0.000001
v 0.083752 0.137073 -0.000001
v 0.003981 0.080629 -0.000001
v -0.076186 0.122012 -0.000001
v -0.169509 0.201287 -0.000001
v -0.250327 0.297017 -0.000001
v -0.298485 0.374825 -0.000001
v -0.328836 0.474746 -0.000001
v -0.340757 0.718952 -0.000001
v -0.326317 0.811791 -0.000001
v -0.301824 0.902910 -0.000001
v -0.253030 1.029334 -0.000001
v -0.209918 0.249152 -0.000001
v 0.266797 0.305486 -0.000001
v -0.313661 0.424786 -0.000001
v -0.080413 0.562721 -0.000001
v 0.131782 0.427635 -0.000001
v -0.017514 0.195335 -0.000001
v -0.021115 0.359772 -0.000001
v -0.001424 0.401036 -0.000001
v -0.239817 1.101038 0.173455
v -0.336323 0.984854 0.173455
v -0.394982 0.866296 0.173455
v -0.442953 0.711428 0.173455
v -0.445480 0.475063 0.173455
v -0.408800 0.281323 0.173455
v -0.364912 0.185228 0.173455
v -0.281855 0.064673 0.173455
v -0.163556 -0.070225 0.173455
v -0.109975 -0.116520 0.173455
v -0.072521 -0.264944 0.173455
v -0.009049 -0.616673 0.173455
v 0.037257 -0.780600 0.173455
v 0.075907 -0.086626 0.173455
v 0.316805 0.073116 0.173455
v 0.324643 0.377067 0.173455
v 0.279521 0.323992 0.173455
v 0.231441 0.254065 0.173455
v 0.083752 0.137073 0.173455
v 0.003981 0.080629 0.173455
v -0.076186 0.122012 0.173455
v -0.169509 0.201287 0.173455
v -0.250327 0.297017 0.173455
v -0.298485 0.374825 0.173455
v -0.328836 0.474746 0.173455
v -0.340757 0.718952 0.173455
v -0.326317 0.811791 0.173455
v -0.301824 0.902910 0.173455
v -0.253030 1.029334 0.173455
v -0.209918 0.249152 0.173455
v 0.266797 0.305486 0.173455
v -0.313661 0.424786 0.173455
v -0.080413 0.562721 0.173455
v 0.131782 0.427635 0.173455
v -0.017514 0.195335 0.173455
v -0.021115 0.359772 0.173455
v -0.001424 0.401036 0.173455
vn -0.0000 -0.0000 -1.0000
vn -0.0000 -0.0000 1.0000
vn -0.5776 0.8163 -0.0000
vn -0.9096 -0.4154 -0.0000
vn 0.5370 0.8436 -0.0000
vn 0.4587 0.8886 -0.0000
vn -0.8235 -0.5673 -0.0000
vn 0.8412 -0.5407 -0.0000
vn 0.6474 0.7621 -0.0000
vn -0.7518 -0.6593 -0.0000
vn -0.9998 -0.0219 -0.0000
vn 0.7641 0.6451 -0.0000
vn -0.6538 -0.7567 -0.0000
vn -0.9025 0.4307 -0.0000
vn 0.8503 0.5263 -0.0000
vn -0.9696 -0.2447 -0.0000
vn -0.8985 -0.4390 -0.0000
vn 0.9568 0.2906 -0.0000
vn -0.9841 -0.1776 -0.0000
vn 0.9988 0.0488 -0.0000
vn -0.9623 -0.2718 -0.0000
vn 0.9881 -0.1537 -0.0000
vn 0.9985 -0.0556 -0.0000
vn 0.9657 -0.2596 -0.0000
vn 0.5526 -0.8334 -0.0000
vn -0.7692 0.6390 -0.0000
vn 0.9329 -0.3601 -0.0000
vn 0.9997 -0.0258 -0.0000
vn -0.8963 0.4435 -0.0000
vn 0.9834 -0.1812 -0.0000
vn -0.7619 0.6477 -0.0000
vn -0.9552 0.2959 -0.0000
vn -0.8240 0.5666 -0.0000
vn -0.9999 0.0107 -0.0000
vn -0.6209 0.7839 -0.0000
vn -0.9825 -0.1860 -0.0000
vt 0.710436 0.262554
vt 0.716146 0.266294
vt 0.718639 0.263181
vt 0.738421 0.268406
vt 0.730505 0.265691
vt 0.731525 0.267342
vt 0.722823 0.259352
vt 0.720731 0.261267
vt 0.717007 0.253888
vt 0.730692 0.259114
vt 0.731805 0.254526
vt 0.735934 0.256784
vt 0.712708 0.258710
vt 0.727436 0.273809
vt 0.727654 0.256181
vt 0.723132 0.248492
vt 0.725905 0.246640
vt 0.727844 0.240703
vt 0.714575 0.270290
vt 0.715361 0.268292
vt 0.731130 0.226634
vt 0.713958 0.280059
vt 0.733527 0.220077
vt 0.714706 0.283772
vt 0.735528 0.247836
vt 0.715973 0.287417
vt 0.747999 0.254225
vt 0.714188 0.290695
vt 0.719184 0.295342
vt 0.718500 0.292474
vt 0.748405 0.266383
vt 0.711151 0.285952
vt 0.746069 0.264260
vt 0.708667 0.279758
vt 0.743580 0.261463
vt 0.745410 0.263520
vt 0.708537 0.270303
s 0
usemtl sinrunes2
f 6/1/1 24/2/1 23/3/1
f 34/4/1 36/5/1 37/6/1
f 59/7/2 67/8/2 45/9/2
f 73/5/2 72/10/2 71/4/2
f 20/11/3 56/12/3 19/12/3
f 7/13/4 43/1/4 6/1/4
f 33/14/5 71/4/5 34/4/5
f 21/15/6 57/11/6 20/11/6
f 8/9/7 44/13/7 7/13/7
f 34/4/8 72/10/8 35/10/8
f 22/7/9 58/15/9 21/15/9
f 9/16/10 45/9/10 8/9/10
f 35/10/11 73/5/11 36/5/11
f 23/3/12 67/8/12 30/8/12
f 10/17/13 46/16/13 9/16/13
f 36/5/14 74/6/14 37/6/14
f 24/2/15 60/3/15 23/3/15
f 11/18/16 47/17/16 10/17/16
f 37/6/17 70/14/17 33/14/17
f 25/19/18 69/20/18 32/20/18
f 12/21/19 48/18/19 11/18/19
f 26/22/20 62/19/20 25/19/20
f 13/23/21 49/21/21 12/21/21
f 27/24/22 63/22/22 26/22/22
f 14/25/23 50/23/23 13/23/23
f 28/26/24 64/24/24 27/24/24
f 15/27/25 51/25/25 14/25/25
f 2/28/26 38/29/26 1/29/26
f 29/30/27 65/26/27 28/26/27
f 16/31/28 52/27/28 15/27/28
f 3/32/29 39/28/29 2/28/29
f 1/29/30 66/30/30 29/30/30
f 17/33/31 53/31/31 16/31/31
f 4/34/32 40/32/32 3/32/32
f 30/8/12 59/7/12 22/7/12
f 18/35/33 68/36/33 31/36/33
f 5/37/34 41/34/34 4/34/34
f 31/36/33 54/33/33 17/33/33
f 19/12/35 55/35/35 18/35/35
f 6/1/36 42/37/36 5/37/36
f 32/20/18 61/2/18 24/2/18
f 6/1/1 5/37/1 32/20/1
f 5/37/1 4/34/1 25/19/1
f 4/34/1 3/32/1 27/24/1
f 3/32/1 2/28/1 28/26/1
f 4/34/1 27/24/1 26/22/1
f 2/28/1 1/29/1 29/30/1
f 2/28/1 29/30/1 28/26/1
f 5/37/1 25/19/1 32/20/1
f 8/9/1 7/13/1 30/8/1
f 7/13/1 6/1/1 23/3/1
f 8/9/1 30/8/1 22/7/1
f 10/17/1 9/16/1 20/11/1
f 9/16/1 8/9/1 21/15/1
f 13/23/1 12/21/1 14/25/1
f 12/21/1 11/18/1 14/25/1
f 9/16/1 21/15/1 20/11/1
f 21/15/1 8/9/1 22/7/1
f 14/25/1 11/18/1 10/17/1
f 16/31/1 15/27/1 17/33/1
f 15/27/1 14/25/1 19/12/1
f 18/35/1 15/27/1 19/12/1
f 31/36/1 17/33/1 15/27/1
f 18/35/1 31/36/1 15/27/1
f 14/25/1 10/17/1 20/11/1
f 28/26/1 27/24/1 3/32/1
f 4/34/1 26/22/1 25/19/1
f 20/11/1 19/12/1 14/25/1
f 6/1/1 32/20/1 24/2/1
f 30/8/1 7/13/1 23/3/1
f 34/4/1 35/10/1 36/5/1
f 37/6/1 33/14/1 34/4/1
f 41/34/2 42/37/2 62/19/2
f 42/37/2 43/1/2 69/20/2
f 69/20/2 43/1/2 61/2/2
f 43/1/2 44/13/2 60/3/2
f 44/13/2 45/9/2 67/8/2
f 60/3/2 44/13/2 67/8/2
f 45/9/2 46/16/2 58/15/2
f 46/16/2 47/17/2 57/11/2
f 58/15/2 46/16/2 57/11/2
f 48/18/2 49/21/2 51/25/2
f 49/21/2 50/23/2 51/25/2
f 61/2/2 43/1/2 60/3/2
f 47/17/2 48/18/2 51/25/2
f 51/25/2 52/27/2 56/12/2
f 52/27/2 53/31/2 54/33/2
f 55/35/2 52/27/2 68/36/2
f 54/33/2 68/36/2 52/27/2
f 39/28/2 40/32/2 65/26/2
f 40/32/2 41/34/2 64/24/2
f 65/26/2 40/32/2 64/24/2
f 66/30/2 38/29/2 39/28/2
f 65/26/2 66/30/2 39/28/2
f 52/27/2 55/35/2 56/12/2
f 47/17/2 51/25/2 57/11/2
f 51/25/2 56/12/2 57/11/2
f 63/22/2 64/24/2 41/34/2
f 62/19/2 63/22/2 41/34/2
f 58/15/2 59/7/2 45/9/2
f 69/20/2 62/19/2 42/37/2
f 71/4/2 70/14/2 74/6/2
f 74/6/2 73/5/2 71/4/2
f 20/11/3 57/11/3 56/12/3
f 7/13/4 44/13/4 43/1/4
f 33/14/5 70/14/5 71/4/5
f 21/15/6 58/15/6 57/11/6
f 8/9/7 45/9/7 44/13/7
f 34/4/8 71/4/8 72/10/8
f 22/7/9 59/7/9 58/15/9
f 9/16/10 46/16/10 45/9/10
f 35/10/11 72/10/11 73/5/11
f 23/3/12 60/3/12 67/8/12
f 10/17/13 47/17/13 46/16/13
f 36/5/14 73/5/14 74/6/14
f 24/2/15 61/2/15 60/3/15
f 11/18/16 48/18/16 47/17/16
f 37/6/17 74/6/17 70/14/17
f 25/19/18 62/19/18 69/20/18
f 12/21/19 49/21/19 48/18/19
f 26/22/20 63/22/20 62/19/20
f 13/23/21 50/23/21 49/21/21
f 27/24/22 64/24/22 63/22/22
f 14/25/23 51/25/23 50/23/23
f 28/26/24 65/26/24 64/24/24
f 15/27/25 52/27/25 51/25/25
f 2/28/26 39/28/26 38/29/26
f 29/30/27 66/30/27 65/26/27
f 16/31/28 53/31/28 52/27/28
f 3/32/29 40/32/29 39/28/29
f 1/29/30 38/29/30 66/30/30
f 17/33/31 54/33/31 53/31/31
f 4/34/32 41/34/32 40/32/32
f 30/8/12 67/8/12 59/7/12
f 18/35/33 55/35/33 68/36/33
f 5/37/34 42/37/34 41/34/34
f 31/36/33 68/36/33 54/33/33
f 19/12/35 56/12/35 55/35/35
f 6/1/36 43/1/36 42/37/36
f 32/20/18 69/20/18 61/2/18
