# Blender 4.3.2
# www.blender.org
mtllib raptorplushtoes.mtl
o Asset
v 1.008036 0.032251 -0.787274
v 1.402031 -0.301859 -0.910354
v 1.005287 -0.415002 -1.136729
v 1.445912 -0.920319 -0.665250
v 1.005287 -0.877218 -0.943986
v 1.008542 -1.175808 -0.397555
v 1.005287 0.357442 0.357337
v 1.441237 0.222880 0.257843
v 1.603212 -0.510740 -0.447791
v 1.450808 -0.833986 -0.021706
v 1.005287 -0.769407 0.474368
v 1.364566 -0.409625 1.231576
v 0.996109 -0.463066 1.439920
v 1.005287 -0.056329 1.380386
v 1.476840 -0.090498 1.140190
v 1.119094 0.262155 0.997581
v 0.585951 0.261356 0.426374
v 0.618271 -0.303688 -0.919503
v 0.585542 -0.929645 -0.685636
v 0.568367 -0.844786 -0.024880
v 0.659007 -0.410146 1.245892
v 0.533568 -0.091534 1.159516
v 0.406715 -0.509670 -0.447399
v -0.395395 0.238424 0.869008
v 0.542539 -0.401580 -0.584595
v 0.286139 -0.805592 -0.860595
v 0.275514 -0.078254 -1.038560
v 0.394101 -0.813740 -0.138068
v -0.102331 0.317404 -0.789196
v 0.549687 0.320642 0.326338
v 0.679208 -0.171768 1.253273
v 0.528060 -0.531824 1.325698
v -0.208852 -0.124661 -1.240372
v -0.237310 -0.669913 -1.093210
v -0.176768 -1.084915 -0.549191
v -0.023975 -0.775066 0.495263
v 0.102702 -0.580391 1.610525
v 0.189907 -0.124946 1.602758
v 0.278775 0.303771 1.195548
v 0.095246 0.498196 0.527816
v -0.407234 0.417806 0.498037
v -0.597774 0.007759 -0.917454
v -0.817483 -0.409979 -0.758272
v -0.355959 -0.044075 1.424811
v -0.431812 -0.499227 0.996399
v -0.623028 -0.862821 -0.414497
v -0.457884 1.102434 0.141139
v -0.616263 1.539201 0.474555
v -0.096413 0.594424 1.458110
v -0.766388 1.326961 -0.219513
v -0.624407 0.700593 -0.220970
v -0.865378 0.699514 1.509379
v -0.332914 0.212779 1.834845
v -0.493672 0.807456 1.551039
v 0.147637 -0.072769 1.454434
v 0.063939 -0.372653 1.223929
v -0.563353 -0.008263 0.568520
v -0.948626 0.525580 -0.302342
v -1.160959 1.186669 -0.322621
v -1.192207 1.650148 -0.000315
v -0.995818 1.614575 0.621185
v -1.388499 1.447588 0.333387
v -1.377646 0.849746 0.448594
v -1.375969 0.814464 -0.126568
v -0.114121 -0.364802 1.736769
v -0.143129 -0.674950 1.388584
v -1.108242 0.287937 0.342219
v -0.464802 -0.548019 1.423990
v -0.561344 -0.300772 1.706794
v -0.854966 1.339457 -0.366075
v -0.877293 1.687399 -0.170506
v -0.654781 0.967820 0.215624
v -1.196826 1.468566 0.161339
v -1.397883 1.761230 -0.272040
v -1.281084 1.676735 -1.285034
v -1.543367 1.359475 -1.616868
v -1.491027 1.315146 -0.609760
v -1.004074 0.868429 0.171543
v -0.788198 0.952028 0.390864
v -1.457839 1.300579 0.038043
v -1.644909 1.613712 -1.191486
v -0.232745 0.194179 -0.225560
v -0.706506 -1.007161 -1.178168
v -0.536147 -0.458432 -0.820298
v -0.220711 -0.185062 -0.944977
v 0.102567 -0.034320 -0.673783
v -0.175201 -0.815286 -1.401667
v 0.271297 -0.236368 -0.832299
v -0.313767 -2.101311 -1.470568
v 0.151290 -0.227940 -0.595918
v 0.155941 -0.081725 -0.919987
v -0.605058 -1.157529 -0.933924
v -0.274790 -0.544304 -0.547997
v 0.678470 -1.060570 -1.331708
v 0.931417 -0.985649 -1.440125
v 0.864217 -2.188833 -1.481858
v 1.288543 -1.105688 -0.916038
v 1.037180 -0.498286 -0.192166
v 1.188812 -0.474750 -0.687515
v 0.841038 -0.463993 -1.037714
v 0.577427 -0.532963 -0.777887
v 0.810841 -0.442185 -0.248520
v 0.950398 -0.268226 -0.296609
vn -0.0061 0.8523 -0.5230
vn 0.6453 0.3105 -0.6980
vn 0.0041 0.0510 -0.9987
vn 0.6406 -0.6497 -0.4093
vn 0.0067 -0.5776 -0.8163
vn 0.0036 -0.9999 0.0097
vn 0.0130 0.9978 -0.0645
vn 0.6408 0.7629 -0.0860
vn 0.9894 -0.0120 -0.1447
vn 0.6751 -0.6907 0.2591
vn 0.0035 -0.9394 0.3428
vn 0.6220 -0.4938 0.6077
vn 0.0033 -0.4891 0.8722
vn -0.0178 0.4685 0.8833
vn 0.7768 0.3125 0.5468
vn 0.1140 0.9037 0.4128
vn -0.6042 0.7964 0.0264
vn -0.6401 0.3176 -0.6996
vn -0.6188 -0.6596 -0.4267
vn -0.6643 -0.7020 0.2567
vn -0.6124 -0.4964 0.6153
vn -0.7542 0.3705 0.5420
vn -0.9886 -0.0074 -0.1503
vn 0.9544 -0.0838 -0.2866
vn 0.5144 -0.6324 -0.5792
vn 0.5817 0.3259 -0.7453
vn 0.6240 -0.7782 0.0716
vn 0.0256 0.9106 -0.4125
vn 0.7027 0.7063 -0.0853
vn 0.8749 0.1483 0.4610
vn 0.6160 -0.6557 0.4366
vn -0.0811 0.2001 -0.9764
vn -0.1456 -0.4843 -0.8627
vn -0.0636 -0.9832 -0.1712
vn -0.0579 -0.9711 0.2316
vn -0.0380 -0.6003 0.7989
vn 0.1515 0.3083 0.9391
vn 0.2161 0.8478 0.4842
vn 0.0640 0.9918 0.1104
vn -0.5708 0.8078 0.1470
vn -0.6584 0.5184 -0.5457
vn -0.9033 -0.1623 -0.3971
vn -0.6060 0.3636 0.7075
vn -0.7392 -0.5950 0.3156
vn -0.6702 -0.7420 -0.0128
vn 0.8866 0.2932 -0.3577
vn 0.6107 0.7918 0.0029
vn 0.7332 0.5183 0.4402
vn 0.4158 0.5188 -0.7469
vn 0.5802 -0.1590 -0.7988
vn -0.5917 0.2773 0.7570
vn 0.0879 0.1596 0.9833
vn 0.1022 0.6465 0.7560
vn 0.9654 0.0320 0.2589
vn 0.7635 -0.5286 -0.3709
vn 0.0116 -0.7995 -0.6006
vn -0.0678 -0.5469 -0.8344
vn -0.3111 0.2362 -0.9206
vn -0.2629 0.8807 -0.3940
vn -0.0819 0.9130 0.3997
vn -0.8559 0.4916 0.1605
vn -0.9611 -0.1773 0.2117
vn -0.8271 -0.2546 -0.5011
vn 0.3402 -0.4543 0.8234
vn 0.2114 -0.9773 0.0108
vn -0.6476 -0.7340 -0.2046
vn -0.4785 -0.8673 0.1371
vn -0.5064 -0.4484 0.7365
vn 0.7562 -0.4279 -0.4950
vn 0.5410 0.8110 0.2228
vn 0.8543 -0.5165 0.0583
vn -0.1538 0.5303 0.8338
vn -0.3824 0.8864 0.2607
vn 0.3802 0.7319 -0.5654
vn -0.1327 -0.3295 -0.9348
vn -0.4789 -0.8717 -0.1033
vn -0.2133 -0.9752 0.0591
vn 0.1955 -0.3519 0.9154
vn -0.8272 -0.1563 0.5397
vn -0.7799 0.5870 -0.2171
vn -0.8932 0.1347 -0.4290
vn -0.8465 0.4954 0.1948
vn -0.5099 0.7731 -0.3772
vn 0.1114 0.8852 0.4517
vn 0.1682 0.2584 -0.9513
vn 0.9951 0.0836 -0.0534
vn 0.0127 -0.9483 -0.3171
vn 0.4490 0.1434 0.8820
vn 0.3016 0.8202 -0.4862
vn -0.5477 -0.4124 0.7280
vn -0.1776 -0.0837 0.9805
vn -0.7934 0.1275 -0.5952
vn 0.1427 0.3243 -0.9351
vn -0.0279 -0.9372 -0.3477
vn 0.9647 -0.2389 0.1107
vn 0.3100 -0.0812 0.9472
vn 0.7703 0.6174 -0.1594
vn -0.0319 0.7805 -0.6243
vn -0.8905 0.4526 -0.0456
vn -0.5924 0.1080 0.7984
vn 0.0569 0.9085 0.4140
vt 0.878681 0.540213
vt 0.893880 0.555905
vt 0.902735 0.540213
vt 0.924277 0.589250
vt 0.954813 0.540213
vt 0.957359 0.631985
vt 0.808811 0.540213
vt 0.817343 0.564186
vt 0.887885 0.587255
vt 0.882181 0.633216
vt 0.834185 0.690529
vt 0.737490 0.636297
vt 0.699013 0.654828
vt 0.696388 0.596547
vt 0.745615 0.602428
vt 0.750206 0.548365
vt 0.803432 0.515079
vt 0.894308 0.524571
vt 0.924026 0.491914
vt 0.957359 0.448441
vt 0.882988 0.447400
vt 0.834185 0.389897
vt 0.735894 0.444560
vt 0.699013 0.425598
vt 0.696388 0.483878
vt 0.743813 0.477951
vt 0.887823 0.493157
vt 0.888012 0.587229
vt 0.924196 0.589013
vt 0.894180 0.555869
vt 0.882621 0.633112
vt 0.878715 0.540213
vt 0.817639 0.564164
vt 0.746235 0.602412
vt 0.738213 0.636492
vt 0.958890 0.630367
vt 0.699084 0.654870
vt 0.748912 0.546327
vt 0.815248 0.516080
vt 0.893970 0.524531
vt 0.908593 0.503653
vt 0.744803 0.481328
vt 0.783193 0.436319
vt 0.919123 0.465272
vt 0.958890 0.450059
vt 0.701290 0.427037
vt 0.888017 0.587228
vt 0.876460 0.558091
vt 0.790912 0.566331
vt 0.913537 0.566952
vt 0.920303 0.613707
vt 0.814931 0.516056
vt 0.749542 0.533106
vt 0.745678 0.602427
vt 0.738873 0.636670
vt 0.958326 0.630963
vt 0.878034 0.540213
vt 0.893775 0.524508
vt 0.887679 0.493127
vt 0.924798 0.489644
vt 0.958326 0.449462
vt 0.699552 0.655142
vt 0.881655 0.447086
vt 0.734603 0.444909
vt 0.699552 0.425283
vt 0.741642 0.477896
vt 0.402220 0.242988
vt 0.396921 0.214111
vt 0.350709 0.222404
vt 0.381852 0.195672
vt 0.406919 0.193795
vt 0.449256 0.210393
vt 0.494900 0.207644
vt 0.400008 0.271098
vt 0.333348 0.231627
vt 0.341819 0.206448
vt 0.382022 0.179160
vt 0.447400 0.185872
vt 0.414136 0.155066
vt 0.339319 0.181678
vt 0.412174 0.193407
vt 0.381126 0.191124
vt 0.368801 0.204131
vt 0.339138 0.206660
vt 0.409421 0.218670
vt 0.351800 0.230094
vt 0.506262 0.197795
vt 0.334843 0.234261
vt 0.355957 0.217756
vt 0.418929 0.176063
vt 0.369537 0.170215
vt 0.334327 0.182329
vt 0.506174 0.197019
vt 0.416815 0.175979
vt 0.412126 0.191740
vt 0.506927 0.197028
vt 0.409161 0.220925
vt 0.352858 0.223624
vt 0.374124 0.209601
vt 0.381295 0.191075
vt 0.370274 0.171492
vt 0.506984 0.197553
vt 0.330946 0.185332
vt 0.340931 0.206638
vt 0.333582 0.232011
s 1
usemtl unknown_7100590326
f 1/1/1 2/2/2 3/3/3
f 4/4/4 3/3/3 2/2/2
f 3/3/3 4/4/4 5/5/5
f 5/5/5 4/4/4 6/6/6
f 7/7/7 8/8/8 1/1/1
f 1/1/1 8/8/8 2/2/2
f 9/9/9 2/2/2 8/8/8
f 9/9/9 4/4/4 2/2/2
f 9/9/9 10/10/10 4/4/4
f 6/6/6 4/4/4 10/10/10
f 6/6/6 10/10/10 11/11/11
f 10/10/10 12/12/12 11/11/11
f 13/13/13 11/11/11 12/12/12
f 14/14/14 13/13/13 12/12/12
f 15/15/15 14/14/14 12/12/12
f 15/15/15 16/16/16 14/14/14
f 15/15/15 8/8/8 16/16/16
f 7/7/7 16/16/16 8/8/8
f 7/7/7 17/17/17 16/16/16
f 7/7/7 1/1/1 17/17/17
f 18/18/18 17/17/17 1/1/1
f 1/1/1 3/3/3 18/18/18
f 15/15/15 12/12/12 10/10/10
f 9/9/9 15/15/15 10/10/10
f 9/9/9 8/8/8 15/15/15
f 3/3/3 19/19/19 18/18/18
f 19/19/19 3/3/3 5/5/5
f 5/5/5 6/20/6 19/19/19
f 6/20/6 20/21/20 19/19/19
f 6/20/6 11/22/11 20/21/20
f 21/23/21 20/21/20 11/22/11
f 11/22/11 13/24/13 21/23/21
f 14/25/14 21/23/21 13/24/13
f 21/23/21 14/25/14 22/26/22
f 14/25/14 16/16/16 22/26/22
f 16/16/16 17/17/17 22/26/22
f 17/17/17 23/27/23 22/26/22
f 23/27/23 17/17/17 18/18/18
f 23/27/23 18/18/18 19/19/19
f 23/27/23 19/19/19 20/21/20
f 20/21/20 22/26/22 23/27/23
f 22/26/22 20/21/20 21/23/21
f 25/28/24 26/29/25 27/30/26
f 25/28/24 28/31/27 26/29/25
f 29/32/28 30/33/29 27/30/26
f 25/28/24 27/30/26 30/33/29
f 25/28/24 30/33/29 31/34/30
f 25/28/24 31/34/30 28/31/27
f 32/35/31 28/31/27 31/34/30
f 29/32/28 27/30/26 33/3/32
f 27/30/26 34/5/33 33/3/32
f 34/5/33 27/30/26 26/29/25
f 34/5/33 26/29/25 35/36/34
f 35/36/34 26/29/25 28/31/27
f 35/36/34 28/31/27 36/11/35
f 28/31/27 32/35/31 36/11/35
f 37/37/36 36/11/35 32/35/31
f 38/14/37 37/37/36 32/35/31
f 31/34/30 38/14/37 32/35/31
f 31/34/30 39/38/38 38/14/37
f 31/34/30 30/33/29 39/38/38
f 40/7/39 39/38/38 30/33/29
f 40/7/39 30/33/29 29/32/28
f 40/7/39 29/32/28 41/39/40
f 42/40/41 41/39/40 29/32/28
f 43/41/42 41/39/40 42/40/41
f 33/3/32 43/41/42 42/40/41
f 29/32/28 33/3/32 42/40/41
f 41/39/40 43/41/42 44/42/43
f 44/42/43 43/41/42 45/43/44
f 46/44/45 45/43/44 43/41/42
f 33/3/32 34/5/33 43/41/42
f 34/5/33 46/44/45 43/41/42
f 46/44/45 34/5/33 35/45/34
f 35/45/34 36/22/35 46/44/45
f 45/43/44 46/44/45 36/22/35
f 45/43/44 36/22/35 37/46/36
f 45/43/44 37/46/36 44/42/43
f 38/25/37 44/42/43 37/46/36
f 39/38/38 44/42/43 38/25/37
f 41/39/40 44/42/43 39/38/38
f 41/39/40 39/38/38 40/7/39
f 47/47/46 48/48/47 49/49/48
f 47/47/46 50/50/49 48/48/47
f 47/47/46 51/51/50 50/50/49
f 52/52/51 53/53/52 54/7/53
f 54/7/53 53/53/52 49/49/48
f 55/54/54 49/49/48 53/53/52
f 55/54/54 47/47/46 49/49/48
f 47/47/46 55/54/54 56/55/55
f 56/55/55 51/51/50 47/47/46
f 51/51/50 56/55/55 57/11/56
f 58/56/57 51/51/50 57/11/56
f 58/56/57 59/5/58 51/51/50
f 50/50/49 51/51/50 59/5/58
f 59/5/58 60/3/59 50/50/49
f 60/3/59 48/48/47 50/50/49
f 60/3/59 61/57/60 48/48/47
f 61/57/60 49/49/48 48/48/47
f 49/49/48 61/57/60 54/7/53
f 54/7/53 61/57/60 52/52/51
f 62/58/61 52/52/51 61/57/60
f 63/59/62 52/52/51 62/58/61
f 61/57/60 60/3/59 62/58/61
f 59/5/58 62/58/61 60/3/59
f 64/60/63 62/58/61 59/5/58
f 59/5/58 58/61/57 64/60/63
f 53/53/52 65/14/64 55/54/54
f 65/14/64 56/55/55 55/54/54
f 56/55/55 65/14/64 66/62/65
f 57/11/56 56/55/55 66/62/65
f 63/59/62 62/58/61 64/60/63
f 63/59/62 64/60/63 67/63/66
f 58/61/57 67/63/66 64/60/63
f 57/22/56 67/63/66 58/61/57
f 68/64/67 67/63/66 57/22/56
f 57/22/56 66/65/65 68/64/67
f 65/25/64 68/64/67 66/65/65
f 68/64/67 65/25/64 69/66/68
f 53/53/52 69/66/68 65/25/64
f 69/66/68 53/53/52 52/52/51
f 52/52/51 63/59/62 69/66/68
f 69/66/68 63/59/62 67/63/66
f 67/63/66 68/64/67 69/66/68
f 70/67/69 71/68/70 72/69/71
f 73/70/72 71/68/70 74/71/73
f 75/72/74 74/71/73 71/68/70
f 75/72/74 71/68/70 70/67/69
f 70/67/69 76/73/75 75/72/74
f 76/73/75 70/67/69 77/74/76
f 78/75/77 77/74/76 70/67/69
f 78/75/77 70/67/69 72/69/71
f 79/76/78 78/75/77 72/69/71
f 72/69/71 71/68/70 79/76/78
f 73/70/72 79/76/78 71/68/70
f 80/77/79 79/76/78 73/70/72
f 73/70/72 74/71/73 80/77/79
f 81/78/80 80/77/79 74/71/73
f 81/78/80 74/71/73 75/72/74
f 75/72/74 76/73/75 81/78/80
f 81/78/80 76/73/75 77/79/76
f 77/79/76 80/77/79 81/78/80
f 80/77/79 77/79/76 78/80/77
f 78/80/77 79/76/78 80/77/79
f 83/81/81 84/82/82 85/83/83
f 85/83/83 84/82/82 86/84/84
f 87/85/85 88/86/86 89/87/87
f 88/86/86 90/88/88 89/87/87
f 86/84/84 90/88/88 88/86/86
f 91/89/89 86/84/84 88/86/86
f 91/89/89 85/83/83 86/84/84
f 91/89/89 87/85/85 85/83/83
f 83/81/81 85/83/83 87/85/85
f 83/81/81 87/85/85 89/87/87
f 92/90/90 83/81/81 89/87/87
f 92/90/90 84/82/82 83/81/81
f 92/90/90 93/91/91 84/82/82
f 93/91/91 86/84/84 84/82/82
f 93/91/91 90/92/88 86/84/84
f 89/93/87 90/92/88 93/91/91
f 89/93/87 93/91/91 92/90/90
f 91/89/89 88/86/86 87/85/85
f 94/94/92 95/95/93 96/96/94
f 95/95/93 97/97/95 96/96/94
f 97/97/95 98/98/96 96/96/94
f 97/97/95 99/99/97 98/98/96
f 99/99/97 97/97/95 95/95/93
f 95/95/93 100/100/98 99/99/97
f 94/94/92 100/100/98 95/95/93
f 94/94/92 101/101/99 100/100/98
f 96/102/94 101/101/99 94/94/92
f 96/102/94 102/103/100 101/101/99
f 101/101/99 102/103/100 103/104/101
f 101/101/99 103/104/101 100/100/98
f 99/99/97 100/100/98 103/104/101
f 103/104/101 98/98/96 99/99/97
f 102/105/100 98/98/96 103/104/101
f 98/98/96 102/105/100 96/96/94
