# Blender 4.3.2
# www.blender.org
mtllib raptorplushfingers.mtl
o Asset
v -0.601155 -0.568830 -1.029271
v -0.779430 0.181899 -0.217797
v -0.654069 0.132568 -0.641464
v -0.385400 -0.038156 -0.435500
v -0.468887 0.191164 0.264400
v -0.684800 0.310188 -0.292191
v -0.455965 0.268208 -0.139552
v -0.227280 -0.066696 -0.104477
v -0.237354 0.497908 0.514421
v -0.000687 -0.111461 0.969247
v -0.422819 0.408452 -0.270356
v -0.609228 0.557608 -0.031619
v -0.288675 0.380135 0.983626
v -0.126822 -0.218091 1.076373
v -0.409196 -0.213183 -0.173477
v -0.732105 0.376485 -0.306033
v -0.557125 0.337275 0.849667
v -0.355000 -0.182624 1.031560
v -0.615951 -0.180020 -0.035851
v 0.682373 0.449133 -0.190615
v 0.798540 0.286803 0.593159
v 0.905940 0.224571 -0.363476
v 0.849683 -0.330444 -0.157281
v 0.560966 0.240304 0.963892
v 0.647234 -0.369657 1.031302
v 0.356908 -0.432908 1.099262
v 0.633007 -0.433226 -0.295863
v 0.568102 0.263176 -0.501672
v 0.313026 0.272775 0.724876
v 0.394601 -0.295536 -0.245722
v -0.213474 -0.243085 0.330594
v 0.227070 0.101545 0.206311
v -0.083056 0.036610 -0.313123
v 0.245869 0.474375 -0.256051
v -0.208660 0.183526 -0.596197
v 0.190327 0.258423 -0.201814
v -0.011921 -0.731596 -1.322629
v 0.089943 0.085364 -0.908530
v 0.825517 -0.282107 -0.548541
v 0.762969 0.085830 -0.248100
v 0.573402 0.043679 0.149346
v 0.645031 -0.814552 -1.229989
v 0.658092 -0.060401 -0.920745
v 0.612211 0.197337 -0.495313
v 0.442552 0.103901 -0.375718
v 0.087322 0.682296 -0.199627
v 0.002669 0.491451 -0.598192
v -0.203815 0.564759 -0.232495
v 0.301845 0.432173 -0.485849
v 0.321558 0.396234 0.521758
v 0.259477 -0.202050 -0.330431
v 0.184475 -0.439099 1.000322
v -0.040647 -0.512099 1.107793
v 0.082803 0.246534 1.058887
v -0.215898 0.337178 0.854888
v -0.250242 -0.152050 -0.335162
v 0.009895 -0.280297 -0.452857
v -0.269161 -0.362812 1.028103
vn 0.1515 -0.6656 -0.7308
vn -0.9416 0.1736 0.2887
vn -0.1975 0.6368 -0.7453
vn 0.9883 -0.0895 -0.1234
vn 0.0414 0.0419 0.9983
vn -0.3443 0.9223 -0.1757
vn 0.6004 0.7996 -0.0091
vn 0.7593 -0.3060 -0.5744
vn 0.4606 0.8850 0.0681
vn 0.9101 -0.3150 0.2692
vn 0.4600 0.4172 -0.7838
vn -0.3626 0.9274 -0.0914
vn 0.0861 0.6204 0.7795
vn 0.2273 -0.6690 0.7076
vn 0.1401 -0.7430 -0.6544
vn -0.5206 0.3662 -0.7713
vn -0.6971 0.4986 0.5152
vn -0.5507 -0.4763 0.6854
vn -0.6645 -0.7314 -0.1533
vn -0.0798 0.9787 -0.1893
vn 0.7114 0.6410 0.2881
vn 0.7737 0.1882 -0.6050
vn 0.7498 -0.6093 -0.2582
vn -0.0005 0.6140 0.7893
vn 0.5753 -0.5799 0.5768
vn -0.3265 -0.5330 0.7806
vn 0.1059 -0.7734 -0.6250
vn -0.2301 0.4256 -0.8752
vn -0.6753 0.6981 0.2380
vn -0.7813 -0.3837 -0.4922
vn -0.4026 -0.4002 0.8233
vn 0.1811 0.8599 0.4772
vn -0.8111 0.5693 -0.1345
vn 0.2676 -0.1108 0.9571
vn 0.1702 -0.7278 -0.6643
vn 0.2246 0.5437 -0.8087
vn 0.8773 -0.4191 0.2339
vn 0.8245 0.5101 0.2448
vn -0.1584 0.0984 0.9825
vn 0.1681 -0.6993 -0.6948
vn 0.0023 0.5711 -0.8209
vn -0.0457 0.9518 -0.3034
vn -0.8467 0.5286 0.0610
vn 0.0878 0.9931 -0.0780
vn -0.1460 0.4521 -0.8799
vn -0.7248 0.6698 -0.1613
vn 0.7284 0.2304 -0.6452
vn 0.7629 0.5846 0.2763
vn 0.7082 -0.5696 -0.4171
vn 0.6734 -0.6512 0.3499
vn -0.0549 -0.7096 0.7025
vn 0.1686 0.4493 0.8773
vn -0.5777 0.6736 0.4611
vn -0.8146 -0.3682 -0.4482
vn 0.0265 -0.6861 -0.7270
vn -0.7831 -0.2505 0.5692
vt 0.988199 0.154319
vt 0.714085 0.108258
vt 0.785353 0.150606
vt 0.785460 0.205523
vt 0.988447 0.156851
vt 0.638694 0.166015
vt 0.726888 0.142932
vt 0.713850 0.180222
vt 0.918579 0.614216
vt 0.823359 0.563730
vt 0.736204 0.635949
vt 0.898186 0.555393
vt 0.878282 0.540213
vt 0.760939 0.545398
vt 0.704485 0.655611
vt 0.964491 0.624451
vt 0.899325 0.535684
vt 0.790106 0.513969
vt 0.737015 0.444982
vt 0.704485 0.424815
vt 0.919628 0.465609
vt 0.964491 0.455975
vt 0.878708 0.540213
vt 0.814338 0.564414
vt 0.897363 0.555491
vt 0.918167 0.613780
vt 0.763171 0.547600
vt 0.735514 0.635763
vt 0.701866 0.654879
vt 0.963565 0.625429
vt 0.898665 0.533822
vt 0.790397 0.513988
vt 0.708446 0.429807
vt 0.921791 0.468018
vt 0.963565 0.454997
vt 0.706579 0.103187
vt 0.658172 0.185867
vt 0.745975 0.151304
vt 0.631663 0.122640
vt 0.996422 0.156255
vt 0.786459 0.199014
vt 0.630706 0.234228
vt 0.785342 0.206477
vt 0.712375 0.181244
vt 0.641063 0.170354
vt 0.988888 0.154771
vt 0.793011 0.140789
vt 0.727226 0.142833
vt 0.705300 0.104252
vt 0.989098 0.156744
vt 0.878824 0.540213
vt 0.902495 0.536628
vt 0.883306 0.523264
vt 0.898828 0.555317
vt 0.822102 0.563825
vt 0.918434 0.614308
vt 0.736296 0.635974
vt 0.703093 0.655144
vt 0.762566 0.547334
vt 0.789971 0.513952
vt 0.922868 0.467770
vt 0.963866 0.455315
vt 0.703093 0.425281
vt 0.736764 0.444960
vt 0.963866 0.625111
s 1
usemtl unknown_7100590326
f 1/1/1 2/2/2 3/3/3
f 3/3/3 4/4/4 1/5/1
f 4/4/4 5/6/5 1/5/1
f 1/5/1 5/6/5 2/2/2
f 2/2/2 5/6/5 6/7/6
f 6/7/6 3/3/3 2/2/2
f 3/3/3 6/7/6 7/8/7
f 7/8/7 4/4/4 3/3/3
f 4/4/4 7/8/7 5/6/5
f 7/8/7 6/7/6 5/6/5
f 8/9/8 9/10/9 10/11/10
f 9/10/9 8/9/8 11/12/11
f 12/13/12 9/10/9 11/12/11
f 13/14/13 9/10/9 12/13/12
f 13/14/13 10/11/10 9/10/9
f 10/11/10 13/14/13 14/15/14
f 14/15/14 8/9/8 10/11/10
f 15/16/15 8/9/8 14/15/14
f 15/16/15 11/12/11 8/9/8
f 15/16/15 16/17/16 11/12/11
f 11/12/11 16/17/16 12/13/12
f 16/17/16 17/18/17 12/13/12
f 13/14/13 12/13/12 17/18/17
f 17/18/17 18/19/18 13/14/13
f 13/14/13 18/19/18 14/20/14
f 18/19/18 19/21/19 14/20/14
f 15/22/15 14/20/14 19/21/19
f 15/22/15 19/21/19 16/17/16
f 19/21/19 17/18/17 16/17/16
f 18/19/18 17/18/17 19/21/19
f 20/23/20 21/24/21 22/25/22
f 21/24/21 23/26/23 22/25/22
f 24/27/24 21/24/21 20/23/20
f 24/27/24 25/28/25 21/24/21
f 23/26/23 21/24/21 25/28/25
f 26/29/26 23/26/23 25/28/25
f 27/30/27 23/26/23 26/29/26
f 27/30/27 22/25/22 23/26/23
f 27/30/27 28/31/28 22/25/22
f 20/23/20 22/25/22 28/31/28
f 28/31/28 29/32/29 20/23/20
f 24/27/24 20/23/20 29/32/29
f 24/27/24 29/32/29 26/33/26
f 30/34/30 26/33/26 29/32/29
f 27/35/27 26/33/26 30/34/30
f 30/34/30 28/31/28 27/35/27
f 30/34/30 29/32/29 28/31/28
f 25/28/25 24/27/24 26/29/26
f 33/36/31 34/37/32 35/38/33
f 33/36/31 36/39/34 34/37/32
f 36/39/34 33/36/31 37/40/35
f 37/40/35 33/36/31 35/38/33
f 37/40/35 35/38/33 38/41/36
f 34/37/32 38/41/36 35/38/33
f 38/41/36 34/37/32 37/40/35
f 37/40/35 34/37/32 36/42/34
f 39/43/37 40/44/38 41/45/39
f 39/43/37 41/45/39 42/46/40
f 43/47/41 39/43/37 42/46/40
f 40/44/38 39/43/37 43/47/41
f 43/47/41 44/48/42 40/44/38
f 40/44/38 44/48/42 41/45/39
f 45/49/43 41/45/39 44/48/42
f 42/50/40 41/45/39 45/49/43
f 42/50/40 45/49/43 43/47/41
f 44/48/42 43/47/41 45/49/43
f 46/51/44 47/52/45 48/53/46
f 46/51/44 49/54/47 47/52/45
f 46/51/44 50/55/48 49/54/47
f 50/55/48 51/56/49 49/54/47
f 51/56/49 50/55/48 52/57/50
f 53/58/51 51/56/49 52/57/50
f 52/57/50 54/59/52 53/58/51
f 54/59/52 52/57/50 50/55/48
f 54/59/52 50/55/48 46/51/44
f 54/59/52 46/51/44 55/60/53
f 48/53/46 55/60/53 46/51/44
f 56/61/54 55/60/53 48/53/46
f 48/53/46 47/52/45 56/61/54
f 56/61/54 47/52/45 57/62/55
f 57/62/55 53/63/51 56/61/54
f 58/64/56 56/61/54 53/63/51
f 53/63/51 54/59/52 58/64/56
f 55/60/53 58/64/56 54/59/52
f 56/61/54 58/64/56 55/60/53
f 57/65/55 51/56/49 53/58/51
f 57/65/55 49/54/47 51/56/49
f 57/65/55 47/52/45 49/54/47
l 31 32
