# Blender 4.2.21 LTS
# www.blender.org
mtllib foreleg.mtl
o LEGUPPER
v 2.438401 11.677921 -2.918233
v -0.709466 9.340337 -2.750030
v 1.210100 8.730300 -2.480009
v 3.856912 11.299438 -1.513108
v 2.639838 8.371524 -1.081105
v 3.033631 8.401050 0.912347
v 2.241066 8.807597 2.738916
v 3.552752 12.016398 2.273077
v 0.564876 9.435883 3.700915
v 1.946263 12.837990 3.207942
v -1.354691 10.045919 3.430893
v -2.784428 10.404695 2.031989
v -3.178221 10.375170 0.038536
v -1.767445 13.828871 -0.470723
v -1.037641 13.241196 -2.274004
v -2.385655 9.968620 -1.788033
v 0.211338 3.471774 -2.820600
v 1.841516 3.257799 -1.232044
v 2.221904 3.075330 1.014905
v 1.207206 2.994064 3.061991
v -0.814995 3.045042 4.127294
v -3.072291 3.208792 3.803907
v -4.702468 3.422767 2.215350
v -5.082855 3.605235 -0.031600
v -4.068156 3.686502 -2.078685
v -2.045952 3.635524 -3.143988
v -0.671520 -8.471946 -4.124291
v 1.121509 -8.486423 -3.846652
v 2.409027 -8.621490 -2.575313
v 2.699245 -8.825554 -0.795881
v 1.881310 -9.020670 0.811961
v 0.267644 -9.132313 1.634072
v -1.525388 -9.117836 1.356435
v -2.812905 -8.982771 0.085095
v -3.103121 -8.778704 -1.694338
v -2.285183 -8.583587 -3.302181
v -1.173923 -13.134750 -5.109133
v 0.968678 -13.364539 -4.797223
v 2.508969 -13.637871 -3.282749
v -0.042468 -13.822339 1.811395
v -2.185072 -13.592551 1.499485
v -3.725363 -13.319217 -0.014989
v -3.100436 -13.036281 -4.099341
v -0.774292 -15.226079 -1.795339
v 2.858608 -13.850349 -1.144188
v 1.884046 -13.920807 0.801602
v -4.075001 -13.106741 -2.153551
v 1.888899 14.128783 -0.233785
v 0.568848 12.419609 -3.208869
v 4.282555 11.428723 0.469796
v 0.076709 13.579674 2.917307
v -1.341803 13.958158 1.512181
vn -0.2094 -0.0636 -0.9758
vn 0.3592 -0.2891 -0.8874
vn -0.1938 -0.0145 -0.9809
vn 0.3900 -0.2001 -0.8988
vn 0.7906 -0.4043 -0.4600
vn 0.8248 -0.3092 -0.4734
vn 0.9200 -0.3649 0.1431
vn 0.9446 -0.3002 0.1329
vn 0.7035 -0.1765 0.6884
vn 0.7015 -0.1883 0.6873
vn 0.1938 0.0145 0.9809
vn 0.2146 0.0614 0.9748
vn -0.3900 0.2001 0.8988
vn -0.3560 0.2882 0.8889
vn -0.8248 0.3092 0.4734
vn -0.7905 0.4043 0.4601
vn -0.9446 0.3002 -0.1329
vn -0.9197 0.3644 -0.1463
vn -0.6980 0.1863 -0.6915
vn -0.7035 0.1766 -0.6884
vn -0.1664 0.0798 -0.9828
vn 0.4438 0.0355 -0.8954
vn 0.8845 -0.0223 -0.4660
vn 0.9873 -0.0716 0.1415
vn 0.7130 -0.0936 0.6949
vn 0.1664 -0.0798 0.9828
vn -0.4439 -0.0355 0.8954
vn -0.8845 0.0222 0.4659
vn -0.9874 0.0716 -0.1414
vn -0.7130 0.0936 -0.6948
vn -0.1599 0.1125 -0.9807
vn 0.4508 0.1076 -0.8861
vn 0.8893 0.0616 -0.4531
vn 0.9882 -0.0080 0.1530
vn 0.7096 -0.0744 0.7007
vn 0.1600 -0.1124 0.9807
vn -0.4508 -0.1075 0.8861
vn -0.8893 -0.0615 0.4531
vn -0.9882 0.0080 -0.1530
vn -0.7096 0.0745 -0.7007
vn -0.1645 0.0978 -0.9815
vn 0.4476 0.0323 -0.8937
vn 0.8848 -0.0453 -0.4638
vn 0.9840 -0.1056 0.1432
vn 0.7075 -0.1256 0.6955
vn 0.1606 -0.0976 0.9822
vn -0.4475 -0.0324 0.8937
vn -0.8848 0.0452 0.4638
vn -0.9841 0.1055 -0.1432
vn -0.7075 0.1255 -0.6955
vn -0.0943 -0.9921 -0.0832
vn 0.3840 0.9124 -0.1419
vt 0.001570 0.999872
vt 0.077413 0.999872
vt 0.001570 0.867939
vt 0.077413 0.867939
vt 0.153256 0.999872
vt 0.153256 0.867939
vt 0.229099 0.999872
vt 0.229099 0.867939
vt 0.304941 0.867939
vt 0.304941 0.999872
vt 0.380784 0.867939
vt 0.380784 0.999872
vt 0.456627 0.867939
vt 0.456627 0.999872
vt 0.532470 0.867939
vt 0.532470 0.999872
vt 0.608312 0.867939
vt 0.608312 0.999872
vt 0.684155 0.999872
vt 0.684155 0.867939
vt 0.759998 0.999872
vt 0.759998 0.867939
vt 0.001570 0.636608
vt 0.086893 0.636608
vt 0.172216 0.636608
vt 0.257540 0.636608
vt 0.342863 0.636608
vt 0.428186 0.636608
vt 0.513509 0.636608
vt 0.598832 0.636608
vt 0.684155 0.636608
vt 0.769478 0.636608
vt 0.854801 0.636608
vt 0.001570 0.176542
vt 0.069287 0.176542
vt 0.137004 0.176542
vt 0.204721 0.176542
vt 0.272437 0.176542
vt 0.340154 0.176542
vt 0.407871 0.176542
vt 0.475588 0.176542
vt 0.543304 0.176542
vt 0.611021 0.176542
vt 0.678738 0.176542
vt 0.001570 0.000711
vt 0.082830 0.000710
vt 0.164090 0.000710
vt 0.245350 0.000710
vt 0.326611 0.000710
vt 0.407871 0.000710
vt 0.489131 0.000710
vt 0.570391 0.000710
vt 0.651651 0.000710
vt 0.732911 0.000710
vt 0.814171 0.000710
vt 0.787487 0.186968
vt 0.877120 0.216092
vt 0.877120 0.157845
vt 0.842883 0.110722
vt 0.787487 0.092723
vt 0.732091 0.110722
vt 0.697854 0.157845
vt 0.697854 0.216092
vt 0.732091 0.263215
vt 0.787487 0.281214
vt 0.842883 0.263215
vt 0.842563 0.353945
vt 0.894267 0.282782
vt 0.926221 0.326763
vt 0.842563 0.265982
vt 0.790860 0.282782
vt 0.758906 0.326763
vt 0.758906 0.381127
vt 0.790860 0.425108
vt 0.842563 0.441908
vt 0.894267 0.425108
vt 0.926221 0.381127
s 1
usemtl Black_Carpet
f 49/1/1 1/2/2 2/3/3
f 2/3/3 1/2/2 3/4/4
f 1/2/2 4/5/5 3/4/4
f 3/4/4 4/5/5 5/6/6
f 4/5/5 50/7/7 5/6/6
f 5/6/6 50/7/7 6/8/8
f 50/7/7 7/9/9 6/8/8
f 50/7/7 8/10/10 7/9/9
f 8/10/10 9/11/11 7/9/9
f 8/10/10 10/12/12 9/11/11
f 10/12/12 11/13/13 9/11/11
f 10/12/12 51/14/14 11/13/13
f 51/14/14 12/15/15 11/13/13
f 51/14/14 52/16/16 12/15/15
f 52/16/16 13/17/17 12/15/15
f 52/16/16 14/18/18 13/17/17
f 14/18/18 15/19/19 13/17/17
f 13/17/17 15/19/19 16/20/20
f 15/19/19 49/21/1 16/20/20
f 16/20/20 49/21/1 2/22/3
f 2/3/3 3/4/4 26/23/21
f 26/23/21 3/4/4 17/24/22
f 3/4/4 5/6/6 17/24/22
f 17/24/22 5/6/6 18/25/23
f 5/6/6 6/8/8 18/25/23
f 18/25/23 6/8/8 19/26/24
f 6/8/8 20/27/25 19/26/24
f 6/8/8 7/9/9 20/27/25
f 7/9/9 21/28/26 20/27/25
f 7/9/9 9/11/11 21/28/26
f 9/11/11 22/29/27 21/28/26
f 9/11/11 11/13/13 22/29/27
f 11/13/13 23/30/28 22/29/27
f 11/13/13 12/15/15 23/30/28
f 12/15/15 24/31/29 23/30/28
f 12/15/15 13/17/17 24/31/29
f 13/17/17 16/20/20 24/31/29
f 24/31/29 16/20/20 25/32/30
f 16/20/20 2/22/3 25/32/30
f 25/32/30 2/22/3 26/33/21
f 26/23/21 17/24/22 27/34/31
f 27/34/31 17/24/22 28/35/32
f 17/24/22 18/25/23 28/35/32
f 28/35/32 18/25/23 29/36/33
f 18/25/23 19/26/24 29/36/33
f 29/36/33 19/26/24 30/37/34
f 19/26/24 31/38/35 30/37/34
f 19/26/24 20/27/25 31/38/35
f 20/27/25 32/39/36 31/38/35
f 20/27/25 21/28/26 32/39/36
f 21/28/26 33/40/37 32/39/36
f 21/28/26 22/29/27 33/40/37
f 22/29/27 34/41/38 33/40/37
f 22/29/27 23/30/28 34/41/38
f 23/30/28 35/42/39 34/41/38
f 23/30/28 24/31/29 35/42/39
f 24/31/29 25/32/30 35/42/39
f 35/42/39 25/32/30 36/43/40
f 25/32/30 26/33/21 36/43/40
f 36/43/40 26/33/21 27/44/31
f 27/34/31 28/35/32 37/45/41
f 37/45/41 28/35/32 38/46/42
f 28/35/32 29/36/33 38/46/42
f 38/46/42 29/36/33 39/47/43
f 29/36/33 30/37/34 39/47/43
f 39/47/43 30/37/34 45/48/44
f 30/37/34 46/49/45 45/48/44
f 30/37/34 31/38/35 46/49/45
f 31/38/35 40/50/46 46/49/45
f 31/38/35 32/39/36 40/50/46
f 32/39/36 41/51/47 40/50/46
f 32/39/36 33/40/37 41/51/47
f 33/40/37 42/52/48 41/51/47
f 33/40/37 34/41/38 42/52/48
f 34/41/38 47/53/49 42/52/48
f 34/41/38 35/42/39 47/53/49
f 35/42/39 36/43/40 47/53/49
f 47/53/49 36/43/40 43/54/50
f 36/43/40 27/44/31 43/54/50
f 43/54/50 27/44/31 37/55/41
f 44/56/51 37/57/41 38/58/42
f 44/56/51 38/58/42 39/59/43
f 44/56/51 39/59/43 45/60/44
f 44/56/51 45/60/44 46/61/45
f 44/56/51 46/61/45 40/62/46
f 44/56/51 40/62/46 41/63/47
f 44/56/51 41/63/47 42/64/48
f 44/56/51 42/64/48 47/65/49
f 44/56/51 47/65/49 43/66/50
f 44/56/51 43/66/50 37/57/41
f 48/67/52 1/68/2 49/69/1
f 48/67/52 4/70/5 1/68/2
f 48/67/52 50/71/7 4/70/5
f 48/67/52 8/72/10 50/71/7
f 48/67/52 10/73/12 8/72/10
f 48/67/52 51/74/14 10/73/12
f 48/67/52 52/75/16 51/74/14
f 48/67/52 14/76/18 52/75/16
f 48/67/52 15/77/19 14/76/18
f 48/67/52 49/69/1 15/77/19
