# Blender 4.2.21 LTS
# www.blender.org
mtllib LEGUPPER.mtl
o LEGLOWER
v 0.020242 0.003865 -0.220159
v -0.261193 -0.321019 -0.197668
v -0.133448 -0.350436 -0.218971
v -0.017714 -0.376243 -0.159159
v 0.182944 -0.071453 -0.042200
v 0.041803 -0.388582 -0.041077
v 0.022370 -0.382739 0.090171
v 0.164659 -0.062662 0.089049
v -0.068591 -0.360947 0.184454
v -0.196335 -0.331530 0.205757
v -0.038932 0.032314 0.204571
v -0.312070 -0.305723 0.145945
v -0.371587 -0.293384 0.027863
v -0.183348 0.098840 -0.104638
v -0.352154 -0.299227 -0.103385
v -0.098599 0.059205 -0.198896
v -0.146771 -0.981584 -0.243180
v -0.008290 -0.985337 -0.173783
v 0.062990 -0.986509 -0.036215
v 0.039843 -0.984651 0.116977
v -0.068891 -0.980473 0.227279
v -0.221678 -0.975570 0.252560
v -0.360160 -0.971817 0.183163
v -0.431440 -0.970645 0.045595
v -0.408292 -0.972503 -0.107597
v -0.299558 -0.976681 -0.217900
v -0.310117 -2.015617 -0.151858
v -0.205643 -2.012884 -0.168037
v -0.111582 -2.011813 -0.119712
v -0.063861 -2.012816 -0.025342
v -0.080708 -2.015508 0.079027
v -0.155688 -2.018861 0.153530
v -0.260162 -2.021595 0.169709
v -0.354223 -2.022665 0.121384
v -0.401944 -2.021663 0.027014
v -0.385097 -2.018971 -0.077355
v -0.111855 -3.149736 -0.130792
v -0.065136 -3.137251 -0.106522
v -0.041281 -3.130222 -0.058469
v -0.049404 -3.131334 -0.004986
v -0.086400 -3.140162 0.033496
v -0.138138 -3.153334 0.042281
v -0.184857 -3.165818 0.018011
v -0.208711 -3.172848 -0.030042
v -0.200589 -3.171736 -0.083525
v -0.163593 -3.162908 -0.122007
v 0.157541 -3.646172 -0.068033
v 0.180186 -3.632163 -0.018126
v 0.171072 -3.631518 0.037697
v 0.013896 -3.702135 0.012853
v 0.023009 -3.702780 -0.042970
v 0.115285 -3.708975 0.000825
v 0.060400 -3.689815 -0.083388
v 0.111787 -3.668193 -0.092961
v 0.133681 -3.644483 0.078115
v 0.082295 -3.666106 0.087688
v 0.036541 -3.688127 0.062760
v 0.035980 0.115505 -0.008005
v 0.127782 -0.046042 -0.160307
v 0.079910 -0.023026 0.183307
v -0.146472 0.082220 0.144718
v -0.201634 0.107631 0.026611
vn -0.4154 0.1914 -0.8893
vn 0.1377 -0.0662 -0.9883
vn -0.4481 0.0929 -0.8891
vn 0.1463 -0.0440 -0.9883
vn 0.6381 -0.2984 -0.7097
vn 0.6849 -0.1641 -0.7099
vn 0.8949 -0.4166 -0.1601
vn 0.9619 -0.2215 -0.1604
vn 0.8714 -0.1943 0.4504
vn 0.8112 -0.3764 0.4476
vn 0.4481 -0.0929 0.8891
vn 0.4154 -0.1913 0.8893
vn -0.1463 0.0440 0.9883
vn -0.1377 0.0662 0.9883
vn -0.6849 0.1641 0.7099
vn -0.6381 0.2984 0.7097
vn -0.9619 0.2215 0.1604
vn -0.8944 0.4166 0.1626
vn -0.8097 0.3758 -0.4507
vn -0.8714 0.1943 -0.4504
vn -0.4601 0.0076 -0.8879
vn 0.1494 -0.0120 -0.9887
vn 0.7018 -0.0270 -0.7119
vn 0.9861 -0.0317 -0.1632
vn 0.8938 -0.0243 0.4479
vn 0.4600 -0.0076 0.8879
vn -0.1494 0.0120 0.9887
vn -0.7018 0.0270 0.7119
vn -0.9861 0.0316 0.1632
vn -0.8938 0.0242 -0.4478
vn -0.4513 0.0094 -0.8923
vn 0.1593 0.0254 -0.9869
vn 0.7090 0.0317 -0.7045
vn 0.9879 0.0258 -0.1530
vn 0.8894 0.0101 0.4570
vn 0.4512 -0.0095 0.8924
vn -0.1593 -0.0255 0.9869
vn -0.7090 -0.0317 0.7045
vn -0.9879 -0.0259 0.1530
vn -0.8894 -0.0102 -0.4569
vn -0.4409 -0.1299 -0.8881
vn 0.1501 0.0205 -0.9885
vn 0.6837 0.1631 -0.7112
vn 0.9562 0.2434 -0.1624
vn 0.8635 0.2307 0.4486
vn 0.4409 0.1299 0.8881
vn -0.1501 -0.0206 0.9885
vn -0.6838 -0.1632 0.7112
vn -0.9562 -0.2435 0.1623
vn -0.8635 -0.2307 -0.4486
vn -0.3989 -0.2472 -0.8830
vn 0.1611 -0.0114 -0.9869
vn 0.6610 0.2292 -0.7145
vn 0.9084 0.3822 -0.1693
vn 0.8089 0.3893 0.4407
vn 0.4004 0.2476 0.8823
vn -0.1611 0.0115 0.9869
vn -0.6610 -0.2292 0.7145
vn -0.9084 -0.3823 0.1692
vn -0.8088 -0.3894 -0.4407
vn 0.3987 -0.9140 0.0756
vn 0.4218 0.9067 -0.0020
vt 0.698081 0.962090
vt 0.728265 0.937517
vt 0.625676 0.873156
vt 0.655859 0.848582
vt 0.758448 0.912944
vt 0.686042 0.824009
vt 0.788631 0.888370
vt 0.716226 0.799435
vt 0.746409 0.774862
vt 0.818814 0.863797
vt 0.776592 0.750289
vt 0.848997 0.839223
vt 0.806775 0.725715
vt 0.879181 0.814650
vt 0.836959 0.701142
vt 0.909364 0.790077
vt 0.867142 0.676569
vt 0.939547 0.765503
vt 0.969730 0.740930
vt 0.897325 0.651995
vt 0.999913 0.716356
vt 0.927508 0.627422
vt 0.507629 0.728160
vt 0.542843 0.699491
vt 0.578057 0.670823
vt 0.613271 0.642154
vt 0.648484 0.613485
vt 0.683698 0.584816
vt 0.718912 0.556147
vt 0.754125 0.527478
vt 0.789339 0.498809
vt 0.824553 0.470140
vt 0.859767 0.441471
vt 0.315233 0.491843
vt 0.339268 0.472275
vt 0.363303 0.452707
vt 0.387338 0.433140
vt 0.411373 0.413572
vt 0.435407 0.394004
vt 0.459442 0.374437
vt 0.483477 0.354869
vt 0.507512 0.335301
vt 0.531547 0.315733
vt 0.555581 0.296166
vt 0.104242 0.232685
vt 0.116539 0.222674
vt 0.128836 0.212662
vt 0.141133 0.202651
vt 0.153430 0.192640
vt 0.165727 0.182628
vt 0.178024 0.172617
vt 0.190320 0.162605
vt 0.202617 0.152594
vt 0.214914 0.142583
vt 0.227211 0.132571
vt 0.000083 0.104748
vt 0.012939 0.094281
vt 0.025795 0.083815
vt 0.038651 0.073349
vt 0.051507 0.062882
vt 0.064363 0.052416
vt 0.077218 0.041949
vt 0.090074 0.031483
vt 0.102930 0.021016
vt 0.115786 0.010550
vt 0.128642 0.000083
vt 0.019245 0.019694
vt 0.030546 0.035249
vt 0.037531 0.025635
vt 0.037531 0.013752
vt 0.030546 0.004139
vt 0.019245 0.000467
vt 0.007944 0.004139
vt 0.000959 0.013752
vt 0.000959 0.025635
vt 0.007943 0.035249
vt 0.019245 0.038921
vt 0.634618 0.954843
vt 0.592518 0.971131
vt 0.590984 0.943274
vt 0.610132 0.992766
vt 0.637099 0.999916
vt 0.663119 0.989850
vt 0.678252 0.966412
vt 0.676719 0.938555
vt 0.659104 0.916920
vt 0.632137 0.909770
vt 0.606118 0.919837
s 1
usemtl Black_Carpet
f 16/1/1 1/2/2 2/3/3
f 2/3/3 1/2/2 3/4/4
f 1/2/2 59/5/5 3/4/4
f 3/4/4 59/5/5 4/6/6
f 59/5/5 5/7/7 4/6/6
f 4/6/6 5/7/7 6/8/8
f 5/7/7 7/9/9 6/8/8
f 5/7/7 8/10/10 7/9/9
f 8/10/10 9/11/11 7/9/9
f 8/10/10 60/12/12 9/11/11
f 60/12/12 10/13/13 9/11/11
f 60/12/12 11/14/14 10/13/13
f 11/14/14 12/15/15 10/13/13
f 11/14/14 61/16/16 12/15/15
f 61/16/16 13/17/17 12/15/15
f 61/16/16 62/18/18 13/17/17
f 62/18/18 14/19/19 13/17/17
f 13/17/17 14/19/19 15/20/20
f 14/19/19 16/21/1 15/20/20
f 15/20/20 16/21/1 2/22/3
f 2/3/3 3/4/4 26/23/21
f 26/23/21 3/4/4 17/24/22
f 3/4/4 4/6/6 17/24/22
f 17/24/22 4/6/6 18/25/23
f 4/6/6 6/8/8 18/25/23
f 18/25/23 6/8/8 19/26/24
f 6/8/8 20/27/25 19/26/24
f 6/8/8 7/9/9 20/27/25
f 7/9/9 21/28/26 20/27/25
f 7/9/9 9/11/11 21/28/26
f 9/11/11 22/29/27 21/28/26
f 9/11/11 10/13/13 22/29/27
f 10/13/13 23/30/28 22/29/27
f 10/13/13 12/15/15 23/30/28
f 12/15/15 24/31/29 23/30/28
f 12/15/15 13/17/17 24/31/29
f 13/17/17 15/20/20 24/31/29
f 24/31/29 15/20/20 25/32/30
f 15/20/20 2/22/3 25/32/30
f 25/32/30 2/22/3 26/33/21
f 26/23/21 17/24/22 27/34/31
f 27/34/31 17/24/22 28/35/32
f 17/24/22 18/25/23 28/35/32
f 28/35/32 18/25/23 29/36/33
f 18/25/23 19/26/24 29/36/33
f 29/36/33 19/26/24 30/37/34
f 19/26/24 31/38/35 30/37/34
f 19/26/24 20/27/25 31/38/35
f 20/27/25 32/39/36 31/38/35
f 20/27/25 21/28/26 32/39/36
f 21/28/26 33/40/37 32/39/36
f 21/28/26 22/29/27 33/40/37
f 22/29/27 34/41/38 33/40/37
f 22/29/27 23/30/28 34/41/38
f 23/30/28 35/42/39 34/41/38
f 23/30/28 24/31/29 35/42/39
f 24/31/29 25/32/30 35/42/39
f 35/42/39 25/32/30 36/43/40
f 25/32/30 26/33/21 36/43/40
f 36/43/40 26/33/21 27/44/31
f 27/34/31 28/35/32 46/45/41
f 46/45/41 28/35/32 37/46/42
f 28/35/32 29/36/33 37/46/42
f 37/46/42 29/36/33 38/47/43
f 29/36/33 30/37/34 38/47/43
f 38/47/43 30/37/34 39/48/44
f 30/37/34 40/49/45 39/48/44
f 30/37/34 31/38/35 40/49/45
f 31/38/35 41/50/46 40/49/45
f 31/38/35 32/39/36 41/50/46
f 32/39/36 42/51/47 41/50/46
f 32/39/36 33/40/37 42/51/47
f 33/40/37 43/52/48 42/51/47
f 33/40/37 34/41/38 43/52/48
f 34/41/38 44/53/49 43/52/48
f 34/41/38 35/42/39 44/53/49
f 35/42/39 36/43/40 44/53/49
f 44/53/49 36/43/40 45/54/50
f 36/43/40 27/44/31 45/54/50
f 45/54/50 27/44/31 46/55/41
f 46/45/41 37/46/42 53/56/51
f 53/56/51 37/46/42 54/57/52
f 37/46/42 38/47/43 54/57/52
f 54/57/52 38/47/43 47/58/53
f 38/47/43 39/48/44 47/58/53
f 47/58/53 39/48/44 48/59/54
f 39/48/44 49/60/55 48/59/54
f 39/48/44 40/49/45 49/60/55
f 40/49/45 55/61/56 49/60/55
f 40/49/45 41/50/46 55/61/56
f 41/50/46 56/62/57 55/61/56
f 41/50/46 42/51/47 56/62/57
f 42/51/47 57/63/58 56/62/57
f 42/51/47 43/52/48 57/63/58
f 43/52/48 50/64/59 57/63/58
f 43/52/48 44/53/49 50/64/59
f 44/53/49 45/54/50 50/64/59
f 50/64/59 45/54/50 51/65/60
f 45/54/50 46/55/41 51/65/60
f 51/65/60 46/55/41 53/66/51
f 52/67/61 53/68/51 54/69/52
f 52/67/61 54/69/52 47/70/53
f 52/67/61 47/70/53 48/71/54
f 52/67/61 48/71/54 49/72/55
f 52/67/61 49/72/55 55/73/56
f 52/67/61 55/73/56 56/74/57
f 52/67/61 56/74/57 57/75/58
f 52/67/61 57/75/58 50/76/59
f 52/67/61 50/76/59 51/77/60
f 52/67/61 51/77/60 53/68/51
f 58/78/62 1/79/2 16/80/1
f 58/78/62 59/81/5 1/79/2
f 58/78/62 5/82/7 59/81/5
f 58/78/62 8/83/10 5/82/7
f 58/78/62 60/84/12 8/83/10
f 58/78/62 11/85/14 60/84/12
f 58/78/62 61/86/16 11/85/14
f 58/78/62 62/87/18 61/86/16
f 58/78/62 14/88/19 62/87/18
f 58/78/62 16/80/1 14/88/19
