g neck
v 2.220032 -9.536743E-07 8.999998
v 0.686029 -2.282536 -9.536743E-07
v 0.686029 -2.282536 8.999998
v 2.220032 -9.536743E-07 -9.536743E-07
v 0.686029 2.282534 -9.536743E-07
v 0.686029 2.282534 8.999998
v -0.6860271 2.282534 8.999998
v -0.6860271 2.282534 -9.536743E-07
v -1.796037 -1.410685 -9.536743E-07
v -1.796037 -1.410685 8.999998
v -1.796037 1.410683 8.999998
v -1.796037 1.410683 -9.536743E-07
v -0.6860271 2.282534 -9.536743E-07
v -0.6860271 2.282534 8.999998
v 0.686029 -2.282536 -9.536743E-07
v -1.796037 1.410683 -9.536743E-07
v -1.796037 -1.410685 -9.536743E-07
v -0.6860271 2.282534 -9.536743E-07
v 0.686029 2.282534 -9.536743E-07
v 2.220032 -9.536743E-07 -9.536743E-07
v 2.220032 -9.536743E-07 8.999998
v -0.6860271 2.282534 8.999998
v 0.686029 2.282534 8.999998
v -1.796037 1.410683 8.999998
v -1.796037 -1.410685 8.999998
v 0.686029 -2.282536 8.999998
vt 0.7499989 1.000004
vt 0.5499981 0
vt 0.5499981 1.000004
vt 0.7499989 0
vt 0.9499997 0
vt 0.9499997 1.000004
vt 1.05 1.000004
vt 1.05 0
vt 0.3499973 0
vt 0.3499973 1.000004
vt 0.1499966 1.000004
vt 0.1499966 0
vt 0.04999619 0
vt 0.04999619 1.000004
vt 0.9755305 0.6545087
vt 0.2061051 0.09549024
vt 0.7938908 0.09549024
vt 0.02447338 0.3454952
vt 0.02447338 0.6545087
vt 0.500002 1.000004
vt 0.500002 1.000004
vt 0.02447338 0.3454952
vt 0.02447338 0.6545087
vt 0.2061051 0.09549024
vt 0.7938908 0.09549024
vt 0.9755305 0.6545087
vn 0.7996249 -0.0003479719 0.6004997
vn 0.25385 -0.7653276 -0.5914676
vn 0.25385 -0.7653276 0.5914676
vn 0.7996249 -0.0003479719 -0.6004997
vn 0.3701627 0.6960371 -0.6152333
vn 0.3701627 0.6960371 0.6152333
vn -0.2516629 0.7258608 0.6401499
vn -0.2516629 0.7258608 -0.6401499
vn -0.6542838 -0.4641075 -0.5970904
vn -0.6542838 -0.4641075 0.5970904
vn -0.7049842 0.3426254 0.6209711
vn -0.7049842 0.3426254 -0.6209711
vn -0.2516629 0.7258608 -0.6401499
vn -0.2516629 0.7258608 0.6401499
vn 0.25385 -0.7653276 -0.5914676
vn -0.7049842 0.3426254 -0.6209711
vn -0.6542838 -0.4641075 -0.5970904
vn -0.2516629 0.7258608 -0.6401499
vn 0.3701627 0.6960371 -0.6152333
vn 0.7996249 -0.0003479719 -0.6004997
vn 0.7996249 -0.0003479719 0.6004997
vn -0.2516629 0.7258608 0.6401499
vn 0.3701627 0.6960371 0.6152333
vn -0.7049842 0.3426254 0.6209711
vn -0.6542838 -0.4641075 0.5970904
vn 0.25385 -0.7653276 0.5914676
g neck_0
f 3/3/3 2/2/2 1/1/1
f 4/4/4 1/1/1 2/2/2
f 4/4/4 5/5/5 1/1/1
f 6/6/6 1/1/1 5/5/5
f 6/6/6 5/5/5 7/7/7
f 8/8/8 7/7/7 5/5/5
f 2/2/2 3/3/3 9/9/9
f 10/10/10 9/9/9 3/3/3
f 10/10/10 11/11/11 9/9/9
f 12/12/12 9/9/9 11/11/11
f 12/12/12 11/11/11 13/13/13
f 14/14/14 13/13/13 11/11/11
f 17/17/17 16/16/16 15/15/15
f 16/16/16 18/18/18 15/15/15
f 18/18/18 19/19/19 15/15/15
f 19/19/19 20/20/20 15/15/15
f 23/23/23 22/22/22 21/21/21
f 22/22/22 24/24/24 21/21/21
f 24/24/24 25/25/25 21/21/21
f 25/25/25 26/26/26 21/21/21
