g Cylinder001
v 3 -1.192093E-06 -1.192093E-06
v 3 -1.192093E-06 1.2
v 2.598076 1.499999 1.2
v 2.598076 1.499999 -1.192093E-06
v 2.598076 -1.500001 -1.192093E-06
v 2.598076 -1.500001 1.2
v 1.500001 -2.598076 -1.192093E-06
v 1.500001 -2.598076 1.2
v 1.192093E-06 -3 -1.192093E-06
v 1.192093E-06 -3 1.2
v -1.500004 -2.598076 -1.192093E-06
v -1.500004 -2.598076 1.2
v 2.598076 1.499999 -1.192093E-06
v 2.598076 1.499999 1.2
v 1.500001 2.598079 1.2
v 1.500001 2.598079 -1.192093E-06
v 1.500001 2.598079 -1.192093E-06
v 1.500001 2.598079 1.2
v 1.192093E-06 2.999998 1.2
v 1.192093E-06 2.999998 -1.192093E-06
v -1.499999 2.598073 1.2
v -1.499999 2.598073 -1.192093E-06
v -2.598073 1.499999 1.2
v -2.598073 1.499999 -1.192093E-06
v -2.999998 -1.192093E-06 1.2
v -2.999998 -1.192093E-06 -1.192093E-06
v -2.598079 -1.500001 1.2
v -2.598079 -1.500001 -1.192093E-06
v -2.598079 -1.500001 -1.192093E-06
v -2.598079 -1.500001 1.2
v -1.500004 -2.598076 1.2
v -1.500004 -2.598076 -1.192093E-06
v 2.598076 -1.500001 -1.192093E-06
v 3 -1.192093E-06 -1.192093E-06
v 2.598076 1.499999 -1.192093E-06
v 1.500001 2.598079 -1.192093E-06
v 1.500001 -2.598076 -1.192093E-06
v 1.192093E-06 2.999998 -1.192093E-06
v 1.192093E-06 -3 -1.192093E-06
v -1.499999 2.598073 -1.192093E-06
v -1.500004 -2.598076 -1.192093E-06
v -2.598073 1.499999 -1.192093E-06
v -2.598079 -1.500001 -1.192093E-06
v -2.999998 -1.192093E-06 -1.192093E-06
v 2.598076 1.499999 1.2
v 3 -1.192093E-06 1.2
v 2.598076 -1.500001 1.2
v 1.500001 2.598079 1.2
v 1.500001 -2.598076 1.2
v 1.192093E-06 2.999998 1.2
v 1.192093E-06 -3 1.2
v -1.499999 2.598073 1.2
v -1.500004 -2.598076 1.2
v -2.598073 1.499999 1.2
v -2.598079 -1.500001 1.2
v -2.999998 -1.192093E-06 1.2
v -0.8021221 2.271022 1.117179
v -1.408621 2.912412 1.292622
v -1.53936 3.070459 0.2628481
v -0.9328606 2.429068 0.08741069
v -2.112998 1.037704 1.094317
v -2.243737 1.19575 0.06454325
v -2.850236 1.837141 0.2399864
v -2.719497 1.679094 1.269754
v -0.8021221 2.271022 1.117179
v -2.112998 1.037704 1.094317
v -2.719497 1.679094 1.269754
v -1.408621 2.912412 1.292622
v -1.408621 2.912412 1.292622
v -2.719497 1.679094 1.269754
v -2.850236 1.837141 0.2399864
v -1.53936 3.070459 0.2628481
v -1.53936 3.070459 0.2628481
v -2.850236 1.837141 0.2399864
v -2.243737 1.19575 0.06454325
v -0.9328606 2.429068 0.08741069
v -0.9328606 2.429068 0.08741069
v -2.243737 1.19575 0.06454325
v -2.112998 1.037704 1.094317
v -0.8021221 2.271022 1.117179
vt 0.1760705 0.4845318
vt 0.1451113 0.3353587
vt 0.02088342 0.3354921
vt 0.05183365 0.4846653
vt 0.3912452 0.4843094
vt 0.3602861 0.3351363
vt 0.6397011 0.4840425
vt 0.6087508 0.3348694
vt 0.8548758 0.4838112
vt 0.8239167 0.3346381
vt 0.9791037 0.4836778
vt 0.9481535 0.3345135
vt 0.9663998 0.4860353
vt 0.9751983 0.3378941
vt 0.9751983 0.3378941
vt 0.9663998 0.4860353
vt 0.9663998 0.4860353
vt 0.9751983 0.3378941
vt 0.8490487 0.3372625
vt 0.8402503 0.4853948
vt 0.6305556 0.3361593
vt 0.6217572 0.4842916
vt 0.3782566 0.3348872
vt 0.3694582 0.4830195
vt 0.1597546 0.333784
vt 0.1509562 0.4819163
vt 0.03361402 0.3331435
vt 0.02481559 0.4812847
vt 0.02481559 0.4812847
vt 0.03361402 0.3331435
vt 0.03361402 0.3331435
vt 0.02481559 0.4812847
vt 0.7849687 0.5483094
vt 0.8330888 0.3713353
vt 0.7849687 0.1943613
vt 0.6534992 0.06480445
vt 0.6534992 0.6778662
vt 0.4739186 0.01738718
vt 0.4739186 0.7252834
vt 0.2943379 0.06480445
vt 0.2943379 0.6778662
vt 0.1628684 0.1943613
vt 0.1628684 0.5483094
vt 0.1147483 0.3713353
vt 0.1628684 0.1969679
vt 0.1147483 0.373079
vt 0.1628684 0.5491812
vt 0.2943379 0.0680516
vt 0.2943379 0.6780975
vt 0.4739186 0.02086563
vt 0.4739186 0.7252834
vt 0.6534992 0.0680516
vt 0.6534992 0.6780975
vt 0.7849687 0.1969679
vt 0.7849687 0.5491812
vt 0.8330888 0.373079
vt 0.05906634 0.2964819
vt 0.09416224 0.9555463
vt 0.9235464 0.9538828
vt 0.8884504 0.2948183
vt 0.08426066 0.159212
vt 0.1363129 0.94665
vt 0.925121 0.936615
vt 0.8730687 0.1491681
vt 0.1131291 0.1575217
vt 0.1777875 0.9821907
vt 0.9028891 0.9641935
vt 0.838222 0.1395245
vt 0.8973734 0.9845483
vt 0.9785789 0.1585625
vt 0.1200149 0.1510541
vt 0.03880946 0.9770487
vt 0.01858818 0.9630637
vt 1.052658 0.9573701
vt 1.183434 0.3227793
vt 0.1493638 0.3284641
vt 0.1472376 0.9450754
vt 0.9357521 0.9385989
vt 0.8423321 0.144284
vt 0.05380863 0.1507516
vn 0.7571624 0.0007400513 -0.6532263
vn 0.7571624 0.0007400513 0.6532263
vn 0.6550232 0.378211 0.6541414
vn 0.6550232 0.378211 -0.6541414
vn 0.6550232 -0.3782112 -0.6541413
vn 0.6550232 -0.3782112 0.6541413
vn 0.3782112 -0.6550232 -0.6541413
vn 0.3782112 -0.6550232 0.6541413
vn -0.0007400513 -0.7571624 -0.6532263
vn -0.0007400513 -0.7571624 0.6532263
vn -0.378211 -0.6550232 -0.6541415
vn -0.378211 -0.6550232 0.6541415
vn 0.6550232 0.378211 -0.6541414
vn 0.6550232 0.378211 0.6541414
vn 0.3782112 0.6550229 0.6541416
vn 0.3782112 0.6550229 -0.6541416
vn 0.3782112 0.6550229 -0.6541416
vn 0.3782112 0.6550229 0.6541416
vn -0.0007400513 0.7571622 0.6532266
vn -0.0007400513 0.7571622 -0.6532266
vn -0.378211 0.6550229 0.6541418
vn -0.378211 0.6550229 -0.6541418
vn -0.6550229 0.378211 0.6541418
vn -0.6550229 0.378211 -0.6541418
vn -0.7571622 0.0007400513 0.6532266
vn -0.7571622 0.0007400513 -0.6532266
vn -0.6550229 -0.3782112 0.6541416
vn -0.6550229 -0.3782112 -0.6541416
vn -0.6550229 -0.3782112 -0.6541416
vn -0.6550229 -0.3782112 0.6541416
vn -0.378211 -0.6550232 0.6541415
vn -0.378211 -0.6550232 -0.6541415
vn 0.6550232 -0.3782112 -0.6541413
vn 0.7571624 0.0007400513 -0.6532263
vn 0.6550232 0.378211 -0.6541414
vn 0.3782112 0.6550229 -0.6541416
vn 0.3782112 -0.6550232 -0.6541413
vn -0.0007400513 0.7571622 -0.6532266
vn -0.0007400513 -0.7571624 -0.6532263
vn -0.378211 0.6550229 -0.6541418
vn -0.378211 -0.6550232 -0.6541415
vn -0.6550229 0.378211 -0.6541418
vn -0.6550229 -0.3782112 -0.6541416
vn -0.7571622 0.0007400513 -0.6532266
vn 0.6550232 0.378211 0.6541414
vn 0.7571624 0.0007400513 0.6532263
vn 0.6550232 -0.3782112 0.6541413
vn 0.3782112 0.6550229 0.6541416
vn 0.3782112 -0.6550232 0.6541413
vn -0.0007400513 0.7571622 0.6532266
vn -0.0007400513 -0.7571624 0.6532263
vn -0.378211 0.6550229 0.6541418
vn -0.378211 -0.6550232 0.6541415
vn -0.6550229 0.378211 0.6541418
vn -0.6550229 -0.3782112 0.6541416
vn -0.7571622 0.0007400513 0.6532266
vn 0.7275568 0.6846285 0.0441
vn 0.7275568 0.6846285 0.0441
vn 0.7275568 0.6846285 0.0441
vn 0.7275568 0.6846285 0.0441
vn -0.7275566 -0.6846288 -0.04409966
vn -0.7275566 -0.6846288 -0.04409966
vn -0.7275566 -0.6846288 -0.04409966
vn -0.7275566 -0.6846288 -0.04409966
vn 0.1250836 -0.1502483 0.9807036
vn 0.1250836 -0.1502483 0.9807036
vn 0.1250836 -0.1502483 0.9807036
vn 0.1250836 -0.1502483 0.9807036
vn -0.6742666 0.7127538 0.1932524
vn -0.6742666 0.7127538 0.1932524
vn -0.6742666 0.7127538 0.1932524
vn -0.6742666 0.7127538 0.1932524
vn -0.1250834 0.1502481 -0.9807037
vn -0.1250834 0.1502481 -0.9807037
vn -0.1250834 0.1502481 -0.9807037
vn -0.1250834 0.1502481 -0.9807037
vn 0.6742668 -0.7127541 -0.1932508
vn 0.6742668 -0.7127541 -0.1932508
vn 0.6742668 -0.7127541 -0.1932508
vn 0.6742668 -0.7127541 -0.1932508
g Cylinder001_0
f 3/3/3 2/2/2 1/1/1
f 4/4/4 3/3/3 1/1/1
f 1/1/1 2/2/2 5/5/5
f 2/2/2 6/6/6 5/5/5
f 5/5/5 6/6/6 7/7/7
f 6/6/6 8/8/8 7/7/7
f 7/7/7 8/8/8 9/9/9
f 8/8/8 10/10/10 9/9/9
f 9/9/9 10/10/10 11/11/11
f 10/10/10 12/12/12 11/11/11
f 15/15/15 14/14/14 13/13/13
f 16/16/16 15/15/15 13/13/13
f 19/19/19 18/18/18 17/17/17
f 20/20/20 19/19/19 17/17/17
f 21/21/21 19/19/19 20/20/20
f 22/22/22 21/21/21 20/20/20
f 23/23/23 21/21/21 22/22/22
f 24/24/24 23/23/23 22/22/22
f 25/25/25 23/23/23 24/24/24
f 26/26/26 25/25/25 24/24/24
f 27/27/27 25/25/25 26/26/26
f 28/28/28 27/27/27 26/26/26
f 31/31/31 30/30/30 29/29/29
f 32/32/32 31/31/31 29/29/29
f 35/35/35 34/34/34 33/33/33
f 33/33/33 36/36/36 35/35/35
f 33/33/33 37/37/37 36/36/36
f 37/37/37 38/38/38 36/36/36
f 37/37/37 39/39/39 38/38/38
f 39/39/39 40/40/40 38/38/38
f 39/39/39 41/41/41 40/40/40
f 41/41/41 42/42/42 40/40/40
f 41/41/41 43/43/43 42/42/42
f 43/43/43 44/44/44 42/42/42
f 47/47/47 46/46/46 45/45/45
f 45/45/45 48/48/48 47/47/47
f 48/48/48 49/49/49 47/47/47
f 48/48/48 50/50/50 49/49/49
f 50/50/50 51/51/51 49/49/49
f 50/50/50 52/52/52 51/51/51
f 52/52/52 53/53/53 51/51/51
f 52/52/52 54/54/54 53/53/53
f 54/54/54 55/55/55 53/53/53
f 54/54/54 56/56/56 55/55/55
f 59/59/59 58/58/58 57/57/57
f 60/60/60 59/59/59 57/57/57
f 63/63/63 62/62/62 61/61/61
f 64/64/64 63/63/63 61/61/61
f 67/67/67 66/66/66 65/65/65
f 68/68/68 67/67/67 65/65/65
f 71/71/71 70/70/70 69/69/69
f 72/72/72 71/71/71 69/69/69
f 75/75/75 74/74/74 73/73/73
f 76/76/76 75/75/75 73/73/73
f 79/79/79 78/78/78 77/77/77
f 80/80/80 79/79/79 77/77/77
